<svg width="262" height="30" viewBox="0 0 262 30" fill="none" xmlns="http://www.w3.org/2000/svg">
<path d="M27.8764 0.799998V29H23.3164V10.36L15.8764 24.44H12.4364L4.95641 10.56L4.99641 29H0.436406V0.799998H4.51641L14.1964 19.24L23.8364 0.799998H27.8764ZM50.7092 20.12H37.3892C37.5492 21.9333 38.0959 23.28 39.0292 24.16C39.9626 25.04 41.2959 25.48 43.0292 25.48C45.1892 25.48 47.1626 24.7867 48.9492 23.4L50.3892 26.84C49.4826 27.5867 48.3359 28.1867 46.9492 28.64C45.5892 29.0933 44.2159 29.32 42.8292 29.32C39.6292 29.32 37.0959 28.4133 35.2292 26.6C33.3892 24.7867 32.4692 22.3067 32.4692 19.16C32.4692 17.16 32.8692 15.3867 33.6692 13.84C34.4692 12.2933 35.5892 11.0933 37.0292 10.24C38.4959 9.38667 40.1492 8.96 41.9892 8.96C44.6826 8.96 46.8026 9.82667 48.3492 11.56C49.9226 13.2933 50.7092 15.68 50.7092 18.72V20.12ZM42.1092 12.48C40.7759 12.48 39.6959 12.9067 38.8692 13.76C38.0692 14.6133 37.5759 15.84 37.3892 17.44H46.4292C46.3759 15.8133 45.9759 14.5867 45.2292 13.76C44.4826 12.9067 43.4426 12.48 42.1092 12.48ZM71.9592 20.12H58.6392C58.7992 21.9333 59.3459 23.28 60.2792 24.16C61.2126 25.04 62.5459 25.48 64.2792 25.48C66.4392 25.48 68.4126 24.7867 70.1992 23.4L71.6392 26.84C70.7326 27.5867 69.5859 28.1867 68.1992 28.64C66.8392 29.0933 65.4659 29.32 64.0792 29.32C60.8792 29.32 58.3459 28.4133 56.4792 26.6C54.6392 24.7867 53.7192 22.3067 53.7192 19.16C53.7192 17.16 54.1192 15.3867 54.9192 13.84C55.7192 12.2933 56.8392 11.0933 58.2792 10.24C59.7459 9.38667 61.3992 8.96 63.2392 8.96C65.9326 8.96 68.0526 9.82667 69.5992 11.56C71.1726 13.2933 71.9592 15.68 71.9592 18.72V20.12ZM63.3592 12.48C62.0259 12.48 60.9459 12.9067 60.1192 13.76C59.3192 14.6133 58.8259 15.84 58.6392 17.44H67.6792C67.6259 15.8133 67.2259 14.5867 66.4792 13.76C65.7326 12.9067 64.6926 12.48 63.3592 12.48ZM85.7758 25.56C86.3624 25.56 86.9758 25.52 87.6158 25.44L87.3758 29.16C86.5758 29.24 85.8424 29.28 85.1758 29.28C82.4291 29.28 80.4024 28.6533 79.0958 27.4C77.7891 26.12 77.1358 24.2267 77.1358 21.72V13.2H73.3758V9.44H77.1358V3.6H82.1358V9.44H87.2958V13.2H82.1358V21.64C82.1358 24.2533 83.3491 25.56 85.7758 25.56ZM110.321 29.32C108.321 29.32 106.561 28.9067 105.041 28.08C103.547 27.2533 102.387 26.0667 101.561 24.52C100.734 22.9733 100.321 21.1733 100.321 19.12C100.321 17.0667 100.734 15.28 101.561 13.76C102.387 12.2133 103.547 11.0267 105.041 10.2C106.561 9.37333 108.321 8.96 110.321 8.96C112.321 8.96 114.067 9.37333 115.561 10.2C117.081 11.0267 118.241 12.2133 119.041 13.76C119.867 15.28 120.281 17.0667 120.281 19.12C120.281 21.1733 119.867 22.9733 119.041 24.52C118.241 26.0667 117.081 27.2533 115.561 28.08C114.067 28.9067 112.321 29.32 110.321 29.32ZM110.281 25.44C111.907 25.44 113.147 24.9067 114.001 23.84C114.854 22.7733 115.281 21.2 115.281 19.12C115.281 17.0667 114.854 15.5067 114.001 14.44C113.147 13.3467 111.921 12.8 110.321 12.8C108.721 12.8 107.481 13.3467 106.601 14.44C105.747 15.5067 105.321 17.0667 105.321 19.12C105.321 21.2 105.747 22.7733 106.601 23.84C107.454 24.9067 108.681 25.44 110.281 25.44ZM142.369 9.44V29H137.489V26C136.875 27.0667 136.049 27.8933 135.009 28.48C133.969 29.04 132.795 29.32 131.489 29.32C126.689 29.32 124.289 26.6267 124.289 21.24V9.44H129.289V21.28C129.289 22.6667 129.569 23.6933 130.129 24.36C130.689 25.0267 131.569 25.36 132.769 25.36C134.155 25.36 135.262 24.9067 136.089 24C136.942 23.0667 137.369 21.84 137.369 20.32V9.44H142.369ZM160.453 13.12L157.533 13.4C154.226 13.7467 152.573 15.4267 152.573 18.44V29H147.573V9.44H152.333V12.88C153.346 10.5333 155.439 9.25333 158.613 9.04L160.133 8.92L160.453 13.12ZM183.745 25.56C184.331 25.56 184.945 25.52 185.585 25.44L185.345 29.16C184.545 29.24 183.811 29.28 183.145 29.28C180.398 29.28 178.371 28.6533 177.065 27.4C175.758 26.12 175.105 24.2267 175.105 21.72V13.2H171.345V9.44H175.105V3.6H180.105V9.44H185.265V13.2H180.105V21.64C180.105 24.2533 181.318 25.56 183.745 25.56ZM205.67 20.12H192.35C192.51 21.9333 193.057 23.28 193.99 24.16C194.923 25.04 196.257 25.48 197.99 25.48C200.15 25.48 202.123 24.7867 203.91 23.4L205.35 26.84C204.443 27.5867 203.297 28.1867 201.91 28.64C200.55 29.0933 199.177 29.32 197.79 29.32C194.59 29.32 192.057 28.4133 190.19 26.6C188.35 24.7867 187.43 22.3067 187.43 19.16C187.43 17.16 187.83 15.3867 188.63 13.84C189.43 12.2933 190.55 11.0933 191.99 10.24C193.457 9.38667 195.11 8.96 196.95 8.96C199.643 8.96 201.763 9.82667 203.31 11.56C204.883 13.2933 205.67 15.68 205.67 18.72V20.12ZM197.07 12.48C195.737 12.48 194.657 12.9067 193.83 13.76C193.03 14.6133 192.537 15.84 192.35 17.44H201.39C201.337 15.8133 200.937 14.5867 200.19 13.76C199.443 12.9067 198.403 12.48 197.07 12.48ZM218.16 8.96C220.907 8.96 222.947 9.62666 224.28 10.96C225.613 12.2933 226.28 14.3467 226.28 17.12V29H221.52V26C221.067 27.04 220.347 27.8533 219.36 28.44C218.4 29.0267 217.28 29.32 216 29.32C214.693 29.32 213.507 29.0533 212.44 28.52C211.373 27.9867 210.533 27.2533 209.92 26.32C209.307 25.3867 209 24.3467 209 23.2C209 21.76 209.36 20.6267 210.08 19.8C210.827 18.9733 212.027 18.3733 213.68 18C215.333 17.6267 217.613 17.44 220.52 17.44H221.52V16.52C221.52 15.1867 221.227 14.2267 220.64 13.64C220.08 13.0533 219.133 12.76 217.8 12.76C216.76 12.76 215.667 12.9467 214.52 13.32C213.4 13.6667 212.293 14.16 211.2 14.8L209.8 11.36C210.893 10.6667 212.213 10.0933 213.76 9.64C215.307 9.18667 216.773 8.96 218.16 8.96ZM217 25.72C218.333 25.72 219.413 25.28 220.24 24.4C221.093 23.4933 221.52 22.3333 221.52 20.92V20.08H220.8C219.013 20.08 217.627 20.16 216.64 20.32C215.653 20.48 214.947 20.76 214.52 21.16C214.093 21.56 213.88 22.1067 213.88 22.8C213.88 23.6533 214.173 24.36 214.76 24.92C215.347 25.4533 216.093 25.72 217 25.72ZM254.602 8.96C256.815 8.96 258.468 9.62666 259.562 10.96C260.655 12.2667 261.202 14.28 261.202 17V29H256.202V17.2C256.202 15.7067 255.948 14.6267 255.442 13.96C254.935 13.2667 254.122 12.92 253.002 12.92C251.668 12.92 250.628 13.3733 249.882 14.28C249.135 15.1867 248.762 16.4533 248.762 18.08V29H243.762V17.2C243.762 15.7067 243.508 14.6267 243.002 13.96C242.522 13.2667 241.708 12.92 240.562 12.92C239.255 12.92 238.228 13.3733 237.482 14.28C236.735 15.1867 236.362 16.4533 236.362 18.08V29H231.362V9.44H236.242V12.2C236.828 11.1333 237.642 10.3333 238.682 9.8C239.722 9.24 240.908 8.96 242.242 8.96C245.202 8.96 247.162 10.1867 248.122 12.64C248.735 11.4933 249.615 10.6 250.762 9.96C251.908 9.29333 253.188 8.96 254.602 8.96Z" fill="#3B3B3B"/>
</svg>
