<svg width="188" height="88" viewBox="0 0 188 88" fill="none" xmlns="http://www.w3.org/2000/svg">
<g filter="url(#filter0_d)">
<rect x="20" y="10" width="148" height="48" rx="8" fill="#744FC6"/>
</g>
<path d="M53.148 29.13H59.56V30.292H54.562V33.4H59.28V34.576H54.562V37.838H59.56V39H53.148V29.13ZM67.5395 39H65.8455L63.8575 36.508L61.8835 39H60.1895L63.0455 35.486L60.3435 32.168H62.0515L63.8575 34.478L65.6775 32.168H67.3715L64.6835 35.486L67.5395 39ZM72.1929 32C72.7809 32 73.3036 32.1493 73.7609 32.448C74.2276 32.7467 74.5869 33.1667 74.8389 33.708C75.1003 34.2493 75.2309 34.8747 75.2309 35.584C75.2309 36.284 75.1049 36.9 74.8529 37.432C74.6009 37.964 74.2416 38.3747 73.7749 38.664C73.3176 38.9533 72.7903 39.098 72.1929 39.098C71.6796 39.098 71.2269 38.9907 70.8349 38.776C70.4429 38.552 70.1443 38.2347 69.9389 37.824V41.52H68.5249V32.168H69.9389V33.288C70.1443 32.8773 70.4429 32.56 70.8349 32.336C71.2269 32.112 71.6796 32 72.1929 32ZM71.8569 37.978C72.4729 37.978 72.9489 37.7727 73.2849 37.362C73.6209 36.942 73.7889 36.3493 73.7889 35.584C73.7889 34.8093 73.6163 34.2073 73.2709 33.778C72.9349 33.3487 72.4636 33.134 71.8569 33.134C71.2409 33.134 70.7649 33.344 70.4289 33.764C70.1023 34.184 69.9389 34.7813 69.9389 35.556C69.9389 36.3307 70.1023 36.928 70.4289 37.348C70.7649 37.768 71.2409 37.978 71.8569 37.978ZM76.7964 29.13H78.2104V39H76.7964V29.13ZM83.155 39.098C82.483 39.098 81.8904 38.9533 81.377 38.664C80.873 38.3747 80.481 37.964 80.201 37.432C79.9304 36.8907 79.795 36.2653 79.795 35.556C79.795 34.8373 79.9304 34.212 80.201 33.68C80.481 33.1387 80.873 32.7233 81.377 32.434C81.8904 32.1447 82.483 32 83.155 32C83.827 32 84.415 32.1447 84.919 32.434C85.4324 32.7233 85.8244 33.1387 86.095 33.68C86.375 34.212 86.515 34.8373 86.515 35.556C86.515 36.2653 86.375 36.8907 86.095 37.432C85.8244 37.964 85.4324 38.3747 84.919 38.664C84.415 38.9533 83.827 39.098 83.155 39.098ZM83.155 37.978C83.7804 37.978 84.2564 37.7727 84.583 37.362C84.919 36.9513 85.087 36.3493 85.087 35.556C85.087 34.772 84.919 34.1747 84.583 33.764C84.247 33.344 83.771 33.134 83.155 33.134C82.539 33.134 82.063 33.344 81.727 33.764C81.391 34.1747 81.223 34.772 81.223 35.556C81.223 36.3493 81.3864 36.9513 81.713 37.362C82.049 37.7727 82.5297 37.978 83.155 37.978ZM92.2474 33.19L91.3934 33.274C90.7214 33.3393 90.236 33.5447 89.9374 33.89C89.648 34.2353 89.5034 34.674 89.5034 35.206V39H88.0894V32.168H89.4614V33.358C89.8254 32.5553 90.5674 32.112 91.6874 32.028L92.1494 32L92.2474 33.19ZM98.9316 35.822H94.1016C94.2043 37.2687 94.9229 37.992 96.2576 37.992C97.0416 37.992 97.7509 37.7353 98.3856 37.222L98.8196 38.216C98.5023 38.4867 98.1103 38.7013 97.6436 38.86C97.1769 39.0187 96.7009 39.098 96.2156 39.098C95.1236 39.098 94.2603 38.7853 93.6256 38.16C93.0003 37.5347 92.6876 36.6713 92.6876 35.57C92.6876 34.87 92.8229 34.2493 93.0936 33.708C93.3736 33.1667 93.7609 32.7467 94.2556 32.448C94.7596 32.1493 95.3289 32 95.9636 32C96.8876 32 97.6109 32.2987 98.1336 32.896C98.6656 33.4933 98.9316 34.3193 98.9316 35.374V35.822ZM95.9916 33.036C95.4503 33.036 95.0163 33.2087 94.6896 33.554C94.3723 33.89 94.1809 34.3753 94.1156 35.01H97.7136C97.6856 34.3753 97.5223 33.89 97.2236 33.554C96.9343 33.2087 96.5236 33.036 95.9916 33.036ZM112.021 32C113.552 32 114.317 32.9193 114.317 34.758V39H112.903V34.814C112.903 34.2353 112.801 33.8153 112.595 33.554C112.399 33.2833 112.077 33.148 111.629 33.148C111.116 33.148 110.71 33.3253 110.411 33.68C110.113 34.0347 109.963 34.52 109.963 35.136V39H108.549V34.814C108.549 34.2353 108.447 33.8153 108.241 33.554C108.036 33.2833 107.714 33.148 107.275 33.148C106.753 33.148 106.342 33.3253 106.043 33.68C105.745 34.0347 105.595 34.52 105.595 35.136V39H104.181V32.168H105.567V33.204C105.782 32.8213 106.071 32.5273 106.435 32.322C106.799 32.1073 107.215 32 107.681 32C108.736 32 109.422 32.4387 109.739 33.316C109.954 32.9053 110.262 32.5833 110.663 32.35C111.065 32.1167 111.517 32 112.021 32ZM119.221 39.098C118.549 39.098 117.957 38.9533 117.443 38.664C116.939 38.3747 116.547 37.964 116.267 37.432C115.997 36.8907 115.861 36.2653 115.861 35.556C115.861 34.8373 115.997 34.212 116.267 33.68C116.547 33.1387 116.939 32.7233 117.443 32.434C117.957 32.1447 118.549 32 119.221 32C119.893 32 120.481 32.1447 120.985 32.434C121.499 32.7233 121.891 33.1387 122.161 33.68C122.441 34.212 122.581 34.8373 122.581 35.556C122.581 36.2653 122.441 36.8907 122.161 37.432C121.891 37.964 121.499 38.3747 120.985 38.664C120.481 38.9533 119.893 39.098 119.221 39.098ZM119.221 37.978C119.847 37.978 120.323 37.7727 120.649 37.362C120.985 36.9513 121.153 36.3493 121.153 35.556C121.153 34.772 120.985 34.1747 120.649 33.764C120.313 33.344 119.837 33.134 119.221 33.134C118.605 33.134 118.129 33.344 117.793 33.764C117.457 34.1747 117.289 34.772 117.289 35.556C117.289 36.3493 117.453 36.9513 117.779 37.362C118.115 37.7727 118.596 37.978 119.221 37.978ZM128.314 33.19L127.46 33.274C126.788 33.3393 126.302 33.5447 126.004 33.89C125.714 34.2353 125.57 34.674 125.57 35.206V39H124.156V32.168H125.528V33.358C125.892 32.5553 126.634 32.112 127.754 32.028L128.216 32L128.314 33.19ZM134.998 35.822H130.168C130.271 37.2687 130.989 37.992 132.324 37.992C133.108 37.992 133.817 37.7353 134.452 37.222L134.886 38.216C134.569 38.4867 134.177 38.7013 133.71 38.86C133.243 39.0187 132.767 39.098 132.282 39.098C131.19 39.098 130.327 38.7853 129.692 38.16C129.067 37.5347 128.754 36.6713 128.754 35.57C128.754 34.87 128.889 34.2493 129.16 33.708C129.44 33.1667 129.827 32.7467 130.322 32.448C130.826 32.1493 131.395 32 132.03 32C132.954 32 133.677 32.2987 134.2 32.896C134.732 33.4933 134.998 34.3193 134.998 35.374V35.822ZM132.058 33.036C131.517 33.036 131.083 33.2087 130.756 33.554C130.439 33.89 130.247 34.3753 130.182 35.01H133.78C133.752 34.3753 133.589 33.89 133.29 33.554C133.001 33.2087 132.59 33.036 132.058 33.036Z" fill="white"/>
<defs>
<filter id="filter0_d" x="0" y="0" width="188" height="88" filterUnits="userSpaceOnUse" color-interpolation-filters="sRGB">
<feFlood flood-opacity="0" result="BackgroundImageFix"/>
<feColorMatrix in="SourceAlpha" type="matrix" values="0 0 0 0 0 0 0 0 0 0 0 0 0 0 0 0 0 0 127 0"/>
<feOffset dy="10"/>
<feGaussianBlur stdDeviation="10"/>
<feColorMatrix type="matrix" values="0 0 0 0 0.454902 0 0 0 0 0.309804 0 0 0 0 0.776471 0 0 0 0.25 0"/>
<feBlend mode="normal" in2="BackgroundImageFix" result="effect1_dropShadow"/>
<feBlend mode="normal" in="SourceGraphic" in2="effect1_dropShadow" result="shape"/>
</filter>
</defs>
</svg>
