<svg width="310" height="53" viewBox="0 0 310 53" fill="none" xmlns="http://www.w3.org/2000/svg">
<path d="M29.515 10.112C28.6003 10.112 27.8023 9.90667 27.121 9.496C26.449 9.08533 25.931 8.502 25.567 7.746C25.203 6.99 25.021 6.09867 25.021 5.072C25.021 4.036 25.1983 3.14 25.553 2.384C25.917 1.61867 26.435 1.03533 27.107 0.634C27.7883 0.223333 28.591 0.0179992 29.515 0.0179992C30.439 0.0179992 31.237 0.223333 31.909 0.634C32.5903 1.03533 33.1083 1.61867 33.463 2.384C33.827 3.14 34.009 4.03133 34.009 5.058C34.009 6.08467 33.827 6.98067 33.463 7.746C33.099 8.502 32.5763 9.08533 31.895 9.496C31.223 9.90667 30.4297 10.112 29.515 10.112ZM29.515 9.132C30.5603 9.132 31.3723 8.782 31.951 8.082C32.539 7.37267 32.833 6.36467 32.833 5.058C32.833 3.75133 32.5437 2.748 31.965 2.048C31.3863 1.348 30.5697 0.998 29.515 0.998C28.4697 0.998 27.653 1.35267 27.065 2.062C26.4863 2.762 26.197 3.76067 26.197 5.058C26.197 6.35533 26.4863 7.35867 27.065 8.068C27.653 8.77733 28.4697 9.132 29.515 9.132ZM41.6484 3.182V10H40.5424V8.838C40.3277 9.24867 40.0244 9.56133 39.6324 9.776C39.2497 9.99067 38.8157 10.098 38.3304 10.098C37.5184 10.098 36.9071 9.874 36.4964 9.426C36.0857 8.96867 35.8804 8.29667 35.8804 7.41V3.182H37.0144V7.382C37.0144 7.98867 37.1357 8.43667 37.3784 8.726C37.6211 9.006 38.0037 9.146 38.5264 9.146C39.1237 9.146 39.6044 8.95467 39.9684 8.572C40.3324 8.18 40.5144 7.66667 40.5144 7.032V3.182H41.6484ZM47.6201 3.994L46.8781 4.064C46.1781 4.12933 45.6694 4.34867 45.3521 4.722C45.0441 5.09533 44.8901 5.55733 44.8901 6.108V10H43.7561V3.182H44.8621V4.372C45.2447 3.57867 45.9961 3.13533 47.1161 3.042L47.5221 3.014L47.6201 3.994ZM55.297 9.188C55.5023 9.188 55.7076 9.174 55.913 9.146L55.857 10.042C55.6423 10.0793 55.409 10.098 55.157 10.098C54.3356 10.098 53.715 9.88333 53.295 9.454C52.8843 9.02467 52.679 8.42733 52.679 7.662V4.078H51.349V3.182H52.679V1.11H53.813V3.182H55.745V4.078H53.813V7.578C53.813 8.65133 54.3076 9.188 55.297 9.188ZM62.7708 6.766H57.7868C57.8241 7.55933 58.0388 8.16133 58.4308 8.572C58.8228 8.97333 59.3781 9.174 60.0968 9.174C60.8901 9.174 61.6181 8.90333 62.2808 8.362L62.6588 9.188C62.3601 9.468 61.9775 9.692 61.5108 9.86C61.0441 10.0187 60.5681 10.098 60.0828 10.098C59.0188 10.098 58.1788 9.78533 57.5628 9.16C56.9561 8.53467 56.6528 7.67133 56.6528 6.57C56.6528 5.87 56.7881 5.254 57.0588 4.722C57.3295 4.18067 57.7075 3.76067 58.1928 3.462C58.6875 3.16333 59.2475 3.014 59.8728 3.014C60.7781 3.014 61.4875 3.31267 62.0008 3.91C62.5141 4.498 62.7708 5.31 62.7708 6.346V6.766ZM59.8868 3.896C59.2895 3.896 58.8088 4.08267 58.4448 4.456C58.0901 4.82933 57.8801 5.35667 57.8148 6.038H61.7768C61.7581 5.34733 61.5855 4.82 61.2588 4.456C60.9321 4.08267 60.4748 3.896 59.8868 3.896ZM67.2136 3.014C68.0816 3.014 68.7256 3.238 69.1456 3.686C69.5749 4.12467 69.7896 4.79667 69.7896 5.702V10H68.6836V8.838C68.5063 9.23933 68.2356 9.552 67.8716 9.776C67.5076 9.99067 67.0876 10.098 66.6116 10.098C66.1729 10.098 65.7669 10.0093 65.3936 9.832C65.0296 9.65467 64.7403 9.40733 64.5256 9.09C64.3109 8.77267 64.2036 8.42267 64.2036 8.04C64.2036 7.52667 64.3343 7.13 64.5956 6.85C64.8569 6.56067 65.2863 6.35533 65.8836 6.234C66.4809 6.10333 67.3116 6.038 68.3756 6.038H68.6836V5.576C68.6836 5.00667 68.5669 4.596 68.3336 4.344C68.1003 4.08267 67.7223 3.952 67.1996 3.952C66.4156 3.952 65.6363 4.19467 64.8616 4.68L64.4836 3.854C64.8383 3.602 65.2629 3.40133 65.7576 3.252C66.2616 3.09333 66.7469 3.014 67.2136 3.014ZM66.7656 9.202C67.3256 9.202 67.7829 9.01533 68.1376 8.642C68.5016 8.25933 68.6836 7.76933 68.6836 7.172V6.766H68.4316C67.6103 6.766 66.9849 6.80333 66.5556 6.878C66.1263 6.94333 65.8183 7.06 65.6316 7.228C65.4543 7.38667 65.3656 7.62467 65.3656 7.942C65.3656 8.306 65.4963 8.60933 65.7576 8.852C66.0283 9.08533 66.3643 9.202 66.7656 9.202ZM79.4534 3.014C80.9654 3.014 81.7214 3.91467 81.7214 5.716V10H80.5874V5.772C80.5874 5.14667 80.4754 4.68933 80.2514 4.4C80.0368 4.11067 79.6868 3.966 79.2014 3.966C78.6321 3.966 78.1841 4.15733 77.8574 4.54C77.5308 4.92267 77.3674 5.44533 77.3674 6.108V10H76.2334V5.772C76.2334 5.13733 76.1214 4.68 75.8974 4.4C75.6734 4.11067 75.3188 3.966 74.8334 3.966C74.2641 3.966 73.8161 4.15733 73.4894 4.54C73.1628 4.92267 72.9994 5.44533 72.9994 6.108V10H71.8654V3.182H72.9854V4.26C73.1908 3.85867 73.4754 3.55067 73.8394 3.336C74.2034 3.12133 74.6234 3.014 75.0994 3.014C76.1541 3.014 76.8494 3.462 77.1854 4.358C77.3814 3.938 77.6801 3.61133 78.0814 3.378C78.4828 3.13533 78.9401 3.014 79.4534 3.014ZM97.7847 3.182L95.2507 10H94.1587L92.2407 4.722L90.3087 10H89.2307L86.6967 3.182H87.8727L89.8047 8.656L91.7787 3.182H92.7587L94.7047 8.656L96.6507 3.182H97.7847ZM101.928 10.098C101.284 10.098 100.714 9.95333 100.22 9.664C99.7345 9.37467 99.3565 8.964 99.0858 8.432C98.8245 7.89067 98.6938 7.26533 98.6938 6.556C98.6938 5.84667 98.8245 5.226 99.0858 4.694C99.3565 4.15267 99.7345 3.73733 100.22 3.448C100.714 3.15867 101.284 3.014 101.928 3.014C102.572 3.014 103.141 3.15867 103.636 3.448C104.13 3.73733 104.508 4.15267 104.77 4.694C105.04 5.226 105.176 5.84667 105.176 6.556C105.176 7.26533 105.04 7.89067 104.77 8.432C104.508 8.964 104.13 9.37467 103.636 9.664C103.141 9.95333 102.572 10.098 101.928 10.098ZM101.928 9.16C102.6 9.16 103.113 8.94067 103.468 8.502C103.832 8.054 104.014 7.40533 104.014 6.556C104.014 5.72533 103.832 5.086 103.468 4.638C103.104 4.18067 102.59 3.952 101.928 3.952C101.265 3.952 100.752 4.18067 100.388 4.638C100.024 5.086 99.8418 5.72533 99.8418 6.556C99.8418 7.396 100.019 8.04 100.374 8.488C100.738 8.936 101.256 9.16 101.928 9.16ZM110.729 3.994L109.987 4.064C109.287 4.12933 108.779 4.34867 108.461 4.722C108.153 5.09533 107.999 5.55733 107.999 6.108V10H106.865V3.182H107.971V4.372C108.354 3.57867 109.105 3.13533 110.225 3.042L110.631 3.014L110.729 3.994ZM116.407 10L112.935 6.738V10H111.801V0.129999H112.935V6.276L116.113 3.196H117.555L114.167 6.458L117.877 10H116.407ZM132.798 3.182L130.264 10H129.172L127.254 4.722L125.322 10H124.244L121.71 3.182H122.886L124.818 8.656L126.792 3.182H127.772L129.718 8.656L131.664 3.182H132.798ZM134.196 3.182H135.33V10H134.196V3.182ZM135.456 0.228V1.502H134.084V0.228H135.456ZM140.445 9.188C140.651 9.188 140.856 9.174 141.061 9.146L141.005 10.042C140.791 10.0793 140.557 10.098 140.305 10.098C139.484 10.098 138.863 9.88333 138.443 9.454C138.033 9.02467 137.827 8.42733 137.827 7.662V4.078H136.497V3.182H137.827V1.11H138.961V3.182H140.893V4.078H138.961V7.578C138.961 8.65133 139.456 9.188 140.445 9.188ZM145.637 3.014C147.271 3.014 148.087 3.91467 148.087 5.716V10H146.953V5.786C146.953 5.15133 146.827 4.68933 146.575 4.4C146.333 4.11067 145.941 3.966 145.399 3.966C144.774 3.966 144.275 4.15733 143.901 4.54C143.528 4.92267 143.341 5.44067 143.341 6.094V10H142.207V0.129999H143.341V4.274C143.565 3.86333 143.873 3.55067 144.265 3.336C144.667 3.12133 145.124 3.014 145.637 3.014ZM159.794 3.196L155.762 12.52H154.6L155.748 9.916L152.864 3.196H154.068L156.35 8.768L158.66 3.196H159.794ZM163.711 10.098C163.067 10.098 162.498 9.95333 162.003 9.664C161.518 9.37467 161.14 8.964 160.869 8.432C160.608 7.89067 160.477 7.26533 160.477 6.556C160.477 5.84667 160.608 5.226 160.869 4.694C161.14 4.15267 161.518 3.73733 162.003 3.448C162.498 3.15867 163.067 3.014 163.711 3.014C164.355 3.014 164.924 3.15867 165.419 3.448C165.914 3.73733 166.292 4.15267 166.553 4.694C166.824 5.226 166.959 5.84667 166.959 6.556C166.959 7.26533 166.824 7.89067 166.553 8.432C166.292 8.964 165.914 9.37467 165.419 9.664C164.924 9.95333 164.355 10.098 163.711 10.098ZM163.711 9.16C164.383 9.16 164.896 8.94067 165.251 8.502C165.615 8.054 165.797 7.40533 165.797 6.556C165.797 5.72533 165.615 5.086 165.251 4.638C164.887 4.18067 164.374 3.952 163.711 3.952C163.048 3.952 162.535 4.18067 162.171 4.638C161.807 5.086 161.625 5.72533 161.625 6.556C161.625 7.396 161.802 8.04 162.157 8.488C162.521 8.936 163.039 9.16 163.711 9.16ZM174.389 3.182V10H173.283V8.838C173.068 9.24867 172.765 9.56133 172.373 9.776C171.99 9.99067 171.556 10.098 171.071 10.098C170.259 10.098 169.647 9.874 169.237 9.426C168.826 8.96867 168.621 8.29667 168.621 7.41V3.182H169.755V7.382C169.755 7.98867 169.876 8.43667 170.119 8.726C170.361 9.006 170.744 9.146 171.267 9.146C171.864 9.146 172.345 8.95467 172.709 8.572C173.073 8.18 173.255 7.66667 173.255 7.032V3.182H174.389ZM183.102 9.188C183.307 9.188 183.512 9.174 183.718 9.146L183.662 10.042C183.447 10.0793 183.214 10.098 182.962 10.098C182.14 10.098 181.52 9.88333 181.1 9.454C180.689 9.02467 180.484 8.42733 180.484 7.662V4.078H179.154V3.182H180.484V1.11H181.618V3.182H183.55V4.078H181.618V7.578C181.618 8.65133 182.112 9.188 183.102 9.188ZM187.691 10.098C187.047 10.098 186.478 9.95333 185.983 9.664C185.498 9.37467 185.12 8.964 184.849 8.432C184.588 7.89067 184.457 7.26533 184.457 6.556C184.457 5.84667 184.588 5.226 184.849 4.694C185.12 4.15267 185.498 3.73733 185.983 3.448C186.478 3.15867 187.047 3.014 187.691 3.014C188.335 3.014 188.905 3.15867 189.399 3.448C189.894 3.73733 190.272 4.15267 190.533 4.694C190.804 5.226 190.939 5.84667 190.939 6.556C190.939 7.26533 190.804 7.89067 190.533 8.432C190.272 8.964 189.894 9.37467 189.399 9.664C188.905 9.95333 188.335 10.098 187.691 10.098ZM187.691 9.16C188.363 9.16 188.877 8.94067 189.231 8.502C189.595 8.054 189.777 7.40533 189.777 6.556C189.777 5.72533 189.595 5.086 189.231 4.638C188.867 4.18067 188.354 3.952 187.691 3.952C187.029 3.952 186.515 4.18067 186.151 4.638C185.787 5.086 185.605 5.72533 185.605 6.556C185.605 7.396 185.783 8.04 186.137 8.488C186.501 8.936 187.019 9.16 187.691 9.16ZM202.286 0.129999V10H201.152V8.754C200.947 9.18333 200.644 9.51467 200.242 9.748C199.85 9.98133 199.388 10.098 198.856 10.098C198.259 10.098 197.732 9.94867 197.274 9.65C196.817 9.35133 196.462 8.936 196.21 8.404C195.958 7.86267 195.832 7.23733 195.832 6.528C195.832 5.828 195.958 5.212 196.21 4.68C196.462 4.148 196.817 3.73733 197.274 3.448C197.732 3.15867 198.259 3.014 198.856 3.014C199.388 3.014 199.85 3.13067 200.242 3.364C200.644 3.59733 200.947 3.92867 201.152 4.358V0.129999H202.286ZM199.08 9.16C199.743 9.16 200.252 8.936 200.606 8.488C200.97 8.03067 201.152 7.38667 201.152 6.556C201.152 5.72533 200.97 5.086 200.606 4.638C200.252 4.19 199.743 3.966 199.08 3.966C198.418 3.966 197.9 4.19 197.526 4.638C197.162 5.086 196.98 5.716 196.98 6.528C196.98 7.35867 197.162 8.00733 197.526 8.474C197.9 8.93133 198.418 9.16 199.08 9.16ZM210.099 6.766H205.115C205.152 7.55933 205.367 8.16133 205.759 8.572C206.151 8.97333 206.706 9.174 207.425 9.174C208.218 9.174 208.946 8.90333 209.609 8.362L209.987 9.188C209.688 9.468 209.306 9.692 208.839 9.86C208.372 10.0187 207.896 10.098 207.411 10.098C206.347 10.098 205.507 9.78533 204.891 9.16C204.284 8.53467 203.981 7.67133 203.981 6.57C203.981 5.87 204.116 5.254 204.387 4.722C204.658 4.18067 205.036 3.76067 205.521 3.462C206.016 3.16333 206.576 3.014 207.201 3.014C208.106 3.014 208.816 3.31267 209.329 3.91C209.842 4.498 210.099 5.31 210.099 6.346V6.766ZM207.215 3.896C206.618 3.896 206.137 4.08267 205.773 4.456C205.418 4.82933 205.208 5.35667 205.143 6.038H209.105C209.086 5.34733 208.914 4.82 208.587 4.456C208.26 4.08267 207.803 3.896 207.215 3.896ZM217.708 3.196L214.768 10H213.704L210.778 3.196H211.982L214.264 8.768L216.574 3.196H217.708ZM224.509 6.766H219.525C219.562 7.55933 219.777 8.16133 220.169 8.572C220.561 8.97333 221.116 9.174 221.835 9.174C222.628 9.174 223.356 8.90333 224.019 8.362L224.397 9.188C224.098 9.468 223.716 9.692 223.249 9.86C222.782 10.0187 222.306 10.098 221.821 10.098C220.757 10.098 219.917 9.78533 219.301 9.16C218.694 8.53467 218.391 7.67133 218.391 6.57C218.391 5.87 218.526 5.254 218.797 4.722C219.068 4.18067 219.446 3.76067 219.931 3.462C220.426 3.16333 220.986 3.014 221.611 3.014C222.516 3.014 223.226 3.31267 223.739 3.91C224.252 4.498 224.509 5.31 224.509 6.346V6.766ZM221.625 3.896C221.028 3.896 220.547 4.08267 220.183 4.456C219.828 4.82933 219.618 5.35667 219.553 6.038H223.515C223.496 5.34733 223.324 4.82 222.997 4.456C222.67 4.08267 222.213 3.896 221.625 3.896ZM226.18 0.129999H227.314V10H226.18V0.129999ZM232.262 10.098C231.618 10.098 231.048 9.95333 230.554 9.664C230.068 9.37467 229.69 8.964 229.42 8.432C229.158 7.89067 229.028 7.26533 229.028 6.556C229.028 5.84667 229.158 5.226 229.42 4.694C229.69 4.15267 230.068 3.73733 230.554 3.448C231.048 3.15867 231.618 3.014 232.262 3.014C232.906 3.014 233.475 3.15867 233.97 3.448C234.464 3.73733 234.842 4.15267 235.104 4.694C235.374 5.226 235.51 5.84667 235.51 6.556C235.51 7.26533 235.374 7.89067 235.104 8.432C234.842 8.964 234.464 9.37467 233.97 9.664C233.475 9.95333 232.906 10.098 232.262 10.098ZM232.262 9.16C232.934 9.16 233.447 8.94067 233.802 8.502C234.166 8.054 234.348 7.40533 234.348 6.556C234.348 5.72533 234.166 5.086 233.802 4.638C233.438 4.18067 232.924 3.952 232.262 3.952C231.599 3.952 231.086 4.18067 230.722 4.638C230.358 5.086 230.176 5.72533 230.176 6.556C230.176 7.396 230.353 8.04 230.708 8.488C231.072 8.936 231.59 9.16 232.262 9.16ZM240.629 3.014C241.227 3.014 241.754 3.16333 242.211 3.462C242.669 3.76067 243.023 4.18067 243.275 4.722C243.527 5.254 243.653 5.87467 243.653 6.584C243.653 7.29333 243.527 7.914 243.275 8.446C243.023 8.96867 242.669 9.37467 242.211 9.664C241.763 9.95333 241.236 10.098 240.629 10.098C240.097 10.098 239.631 9.98133 239.229 9.748C238.837 9.51467 238.539 9.18333 238.333 8.754V12.52H237.199V3.182H238.333V4.358C238.539 3.92867 238.837 3.59733 239.229 3.364C239.631 3.13067 240.097 3.014 240.629 3.014ZM240.405 9.16C241.068 9.16 241.581 8.936 241.945 8.488C242.309 8.04 242.491 7.40533 242.491 6.584C242.491 5.76267 242.309 5.12333 241.945 4.666C241.581 4.19933 241.068 3.966 240.405 3.966C239.743 3.966 239.229 4.19 238.865 4.638C238.511 5.086 238.333 5.72533 238.333 6.556C238.333 7.38667 238.511 8.03067 238.865 8.488C239.229 8.936 239.743 9.16 240.405 9.16ZM251.729 3.014C252.597 3.014 253.241 3.238 253.661 3.686C254.091 4.12467 254.305 4.79667 254.305 5.702V10H253.199V8.838C253.022 9.23933 252.751 9.552 252.387 9.776C252.023 9.99067 251.603 10.098 251.127 10.098C250.689 10.098 250.283 10.0093 249.909 9.832C249.545 9.65467 249.256 9.40733 249.041 9.09C248.827 8.77267 248.719 8.42267 248.719 8.04C248.719 7.52667 248.85 7.13 249.111 6.85C249.373 6.56067 249.802 6.35533 250.399 6.234C250.997 6.10333 251.827 6.038 252.891 6.038H253.199V5.576C253.199 5.00667 253.083 4.596 252.849 4.344C252.616 4.08267 252.238 3.952 251.715 3.952C250.931 3.952 250.152 4.19467 249.377 4.68L248.999 3.854C249.354 3.602 249.779 3.40133 250.273 3.252C250.777 3.09333 251.263 3.014 251.729 3.014ZM251.281 9.202C251.841 9.202 252.299 9.01533 252.653 8.642C253.017 8.25933 253.199 7.76933 253.199 7.172V6.766H252.947C252.126 6.766 251.501 6.80333 251.071 6.878C250.642 6.94333 250.334 7.06 250.147 7.228C249.97 7.38667 249.881 7.62467 249.881 7.942C249.881 8.306 250.012 8.60933 250.273 8.852C250.544 9.08533 250.88 9.202 251.281 9.202ZM265.73 3.182V10H264.624V8.838C264.41 9.24867 264.106 9.56133 263.714 9.776C263.332 9.99067 262.898 10.098 262.412 10.098C261.6 10.098 260.989 9.874 260.578 9.426C260.168 8.96867 259.962 8.29667 259.962 7.41V3.182H261.096V7.382C261.096 7.98867 261.218 8.43667 261.46 8.726C261.703 9.006 262.086 9.146 262.608 9.146C263.206 9.146 263.686 8.95467 264.05 8.572C264.414 8.18 264.596 7.66667 264.596 7.032V3.182H265.73ZM270.148 10.098C269 10.098 268.09 9.804 267.418 9.216L267.796 8.376C268.16 8.66533 268.529 8.87533 268.902 9.006C269.285 9.12733 269.714 9.188 270.19 9.188C270.694 9.188 271.077 9.104 271.338 8.936C271.609 8.75867 271.744 8.50667 271.744 8.18C271.744 7.90933 271.655 7.69467 271.478 7.536C271.301 7.37733 271.007 7.25133 270.596 7.158L269.448 6.892C268.869 6.76133 268.426 6.53733 268.118 6.22C267.81 5.90267 267.656 5.51067 267.656 5.044C267.656 4.43733 267.894 3.94733 268.37 3.574C268.846 3.20067 269.481 3.014 270.274 3.014C270.75 3.014 271.203 3.09333 271.632 3.252C272.061 3.40133 272.421 3.62067 272.71 3.91L272.332 4.736C271.707 4.204 271.021 3.938 270.274 3.938C269.798 3.938 269.425 4.03133 269.154 4.218C268.893 4.39533 268.762 4.64733 268.762 4.974C268.762 5.24467 268.841 5.464 269 5.632C269.168 5.79067 269.434 5.912 269.798 5.996L270.96 6.276C271.595 6.42533 272.066 6.654 272.374 6.962C272.682 7.26067 272.836 7.65267 272.836 8.138C272.836 8.73533 272.593 9.21133 272.108 9.566C271.632 9.92067 270.979 10.098 270.148 10.098ZM280.277 6.766H275.293C275.33 7.55933 275.545 8.16133 275.937 8.572C276.329 8.97333 276.884 9.174 277.603 9.174C278.396 9.174 279.124 8.90333 279.787 8.362L280.165 9.188C279.866 9.468 279.483 9.692 279.017 9.86C278.55 10.0187 278.074 10.098 277.589 10.098C276.525 10.098 275.685 9.78533 275.069 9.16C274.462 8.53467 274.159 7.67133 274.159 6.57C274.159 5.87 274.294 5.254 274.565 4.722C274.835 4.18067 275.213 3.76067 275.699 3.462C276.193 3.16333 276.753 3.014 277.379 3.014C278.284 3.014 278.993 3.31267 279.507 3.91C280.02 4.498 280.277 5.31 280.277 6.346V6.766ZM277.393 3.896C276.795 3.896 276.315 4.08267 275.951 4.456C275.596 4.82933 275.386 5.35667 275.321 6.038H279.283C279.264 5.34733 279.091 4.82 278.765 4.456C278.438 4.08267 277.981 3.896 277.393 3.896ZM285.811 3.994L285.069 4.064C284.369 4.12933 283.861 4.34867 283.543 4.722C283.235 5.09533 283.081 5.55733 283.081 6.108V10H281.947V3.182H283.053V4.372C283.436 3.57867 284.187 3.13533 285.307 3.042L285.713 3.014L285.811 3.994ZM6.70927 26.766H1.72527C1.7626 27.5593 1.97727 28.1613 2.36927 28.572C2.76127 28.9733 3.3166 29.174 4.03527 29.174C4.8286 29.174 5.5566 28.9033 6.21927 28.362L6.59727 29.188C6.2986 29.468 5.91593 29.692 5.44927 29.86C4.9826 30.0187 4.5066 30.098 4.02127 30.098C2.95727 30.098 2.11727 29.7853 1.50127 29.16C0.894599 28.5347 0.591266 27.6713 0.591266 26.57C0.591266 25.87 0.726599 25.254 0.997266 24.722C1.26793 24.1807 1.64593 23.7607 2.13127 23.462C2.62593 23.1633 3.18593 23.014 3.81127 23.014C4.7166 23.014 5.42593 23.3127 5.93927 23.91C6.4526 24.498 6.70927 25.31 6.70927 26.346V26.766ZM3.82527 23.896C3.22793 23.896 2.74727 24.0827 2.38327 24.456C2.0286 24.8293 1.8186 25.3567 1.75327 26.038H5.71527C5.6966 25.3473 5.52393 24.82 5.19727 24.456C4.8706 24.0827 4.41327 23.896 3.82527 23.896ZM14.3604 30H12.9884L10.8604 27.34L8.74638 30H7.36038L10.1884 26.486L7.52838 23.182H8.90038L10.8604 25.66L12.8204 23.182H14.2064L11.5324 26.486L14.3604 30ZM18.9605 23.014C19.5578 23.014 20.0851 23.1633 20.5425 23.462C20.9998 23.7607 21.3545 24.1807 21.6065 24.722C21.8585 25.254 21.9845 25.8747 21.9845 26.584C21.9845 27.2933 21.8585 27.914 21.6065 28.446C21.3545 28.9687 20.9998 29.3747 20.5425 29.664C20.0945 29.9533 19.5671 30.098 18.9605 30.098C18.4285 30.098 17.9618 29.9813 17.5605 29.748C17.1685 29.5147 16.8698 29.1833 16.6645 28.754V32.52H15.5305V23.182H16.6645V24.358C16.8698 23.9287 17.1685 23.5973 17.5605 23.364C17.9618 23.1307 18.4285 23.014 18.9605 23.014ZM18.7365 29.16C19.3991 29.16 19.9125 28.936 20.2765 28.488C20.6405 28.04 20.8225 27.4053 20.8225 26.584C20.8225 25.7627 20.6405 25.1233 20.2765 24.666C19.9125 24.1993 19.3991 23.966 18.7365 23.966C18.0738 23.966 17.5605 24.19 17.1965 24.638C16.8418 25.086 16.6645 25.7253 16.6645 26.556C16.6645 27.3867 16.8418 28.0307 17.1965 28.488C17.5605 28.936 18.0738 29.16 18.7365 29.16ZM29.3909 26.766H24.4069C24.4442 27.5593 24.6589 28.1613 25.0509 28.572C25.4429 28.9733 25.9982 29.174 26.7169 29.174C27.5102 29.174 28.2382 28.9033 28.9009 28.362L29.2789 29.188C28.9802 29.468 28.5976 29.692 28.1309 29.86C27.6642 30.0187 27.1882 30.098 26.7029 30.098C25.6389 30.098 24.7989 29.7853 24.1829 29.16C23.5762 28.5347 23.2729 27.6713 23.2729 26.57C23.2729 25.87 23.4082 25.254 23.6789 24.722C23.9496 24.1807 24.3276 23.7607 24.8129 23.462C25.3076 23.1633 25.8676 23.014 26.4929 23.014C27.3982 23.014 28.1076 23.3127 28.6209 23.91C29.1342 24.498 29.3909 25.31 29.3909 26.346V26.766ZM26.5069 23.896C25.9096 23.896 25.4289 24.0827 25.0649 24.456C24.7102 24.8293 24.5002 25.3567 24.4349 26.038H28.3969C28.3782 25.3473 28.2056 24.82 27.8789 24.456C27.5522 24.0827 27.0949 23.896 26.5069 23.896ZM34.9257 23.994L34.1837 24.064C33.4837 24.1293 32.9751 24.3487 32.6577 24.722C32.3497 25.0953 32.1957 25.5573 32.1957 26.108V30H31.0617V23.182H32.1677V24.372C32.5504 23.5787 33.3017 23.1353 34.4217 23.042L34.8277 23.014L34.9257 23.994ZM35.9973 23.182H37.1313V30H35.9973V23.182ZM37.2573 20.228V21.502H35.8853V20.228H37.2573ZM44.9632 26.766H39.9792C40.0165 27.5593 40.2312 28.1613 40.6232 28.572C41.0152 28.9733 41.5705 29.174 42.2892 29.174C43.0825 29.174 43.8105 28.9033 44.4732 28.362L44.8512 29.188C44.5525 29.468 44.1698 29.692 43.7032 29.86C43.2365 30.0187 42.7605 30.098 42.2752 30.098C41.2112 30.098 40.3712 29.7853 39.7552 29.16C39.1485 28.5347 38.8452 27.6713 38.8452 26.57C38.8452 25.87 38.9805 25.254 39.2512 24.722C39.5218 24.1807 39.8998 23.7607 40.3852 23.462C40.8798 23.1633 41.4398 23.014 42.0652 23.014C42.9705 23.014 43.6798 23.3127 44.1932 23.91C44.7065 24.498 44.9632 25.31 44.9632 26.346V26.766ZM42.0792 23.896C41.4818 23.896 41.0012 24.0827 40.6372 24.456C40.2825 24.8293 40.0725 25.3567 40.0072 26.038H43.9692C43.9505 25.3473 43.7778 24.82 43.4512 24.456C43.1245 24.0827 42.6672 23.896 42.0792 23.896ZM50.064 23.014C51.6973 23.014 52.514 23.9147 52.514 25.716V30H51.38V25.786C51.38 25.1513 51.254 24.6893 51.002 24.4C50.7593 24.1107 50.3673 23.966 49.826 23.966C49.2007 23.966 48.7013 24.1573 48.328 24.54C47.9547 24.9227 47.768 25.4407 47.768 26.094V30H46.634V23.182H47.754V24.302C47.978 23.882 48.2907 23.5647 48.692 23.35C49.0933 23.126 49.5507 23.014 50.064 23.014ZM57.475 30.098C56.803 30.098 56.2197 29.9533 55.725 29.664C55.2303 29.3747 54.8477 28.9687 54.577 28.446C54.3157 27.914 54.185 27.2933 54.185 26.584C54.185 25.8747 54.3203 25.254 54.591 24.722C54.871 24.1807 55.2583 23.7607 55.753 23.462C56.257 23.1633 56.845 23.014 57.517 23.014C57.9743 23.014 58.4223 23.098 58.861 23.266C59.2997 23.4247 59.6543 23.6393 59.925 23.91L59.547 24.75C58.903 24.2273 58.2497 23.966 57.587 23.966C56.887 23.966 56.341 24.1947 55.949 24.652C55.557 25.1093 55.361 25.7533 55.361 26.584C55.361 27.4053 55.557 28.04 55.949 28.488C56.341 28.936 56.887 29.16 57.587 29.16C58.2497 29.16 58.903 28.8987 59.547 28.376L59.925 29.216C59.6357 29.4867 59.2717 29.7013 58.833 29.86C58.3943 30.0187 57.9417 30.098 57.475 30.098ZM67.0022 26.766H62.0182C62.0556 27.5593 62.2702 28.1613 62.6622 28.572C63.0542 28.9733 63.6096 29.174 64.3282 29.174C65.1216 29.174 65.8496 28.9033 66.5122 28.362L66.8902 29.188C66.5916 29.468 66.2089 29.692 65.7422 29.86C65.2756 30.0187 64.7996 30.098 64.3142 30.098C63.2502 30.098 62.4102 29.7853 61.7942 29.16C61.1876 28.5347 60.8842 27.6713 60.8842 26.57C60.8842 25.87 61.0196 25.254 61.2902 24.722C61.5609 24.1807 61.9389 23.7607 62.4242 23.462C62.9189 23.1633 63.4789 23.014 64.1042 23.014C65.0096 23.014 65.7189 23.3127 66.2322 23.91C66.7456 24.498 67.0022 25.31 67.0022 26.346V26.766ZM64.1182 23.896C63.5209 23.896 63.0402 24.0827 62.6762 24.456C62.3216 24.8293 62.1116 25.3567 62.0462 26.038H66.0082C65.9896 25.3473 65.8169 24.82 65.4902 24.456C65.1636 24.0827 64.7062 23.896 64.1182 23.896ZM75.2784 29.188C75.4838 29.188 75.6891 29.174 75.8944 29.146L75.8384 30.042C75.6238 30.0793 75.3904 30.098 75.1384 30.098C74.3171 30.098 73.6964 29.8833 73.2764 29.454C72.8658 29.0247 72.6604 28.4273 72.6604 27.662V24.078H71.3304V23.182H72.6604V21.11H73.7944V23.182H75.7264V24.078H73.7944V27.578C73.7944 28.6513 74.2891 29.188 75.2784 29.188ZM80.4702 23.014C82.1036 23.014 82.9202 23.9147 82.9202 25.716V30H81.7862V25.786C81.7862 25.1513 81.6602 24.6893 81.4082 24.4C81.1656 24.1107 80.7736 23.966 80.2322 23.966C79.6069 23.966 79.1076 24.1573 78.7342 24.54C78.3609 24.9227 78.1742 25.4407 78.1742 26.094V30H77.0402V20.13H78.1742V24.274C78.3982 23.8633 78.7062 23.5507 79.0982 23.336C79.4996 23.1213 79.9569 23.014 80.4702 23.014ZM87.7693 23.014C88.6373 23.014 89.2813 23.238 89.7013 23.686C90.1306 24.1247 90.3453 24.7967 90.3453 25.702V30H89.2393V28.838C89.0619 29.2393 88.7913 29.552 88.4273 29.776C88.0633 29.9907 87.6433 30.098 87.1673 30.098C86.7286 30.098 86.3226 30.0093 85.9493 29.832C85.5853 29.6547 85.2959 29.4073 85.0813 29.09C84.8666 28.7727 84.7593 28.4227 84.7593 28.04C84.7593 27.5267 84.8899 27.13 85.1513 26.85C85.4126 26.5607 85.8419 26.3553 86.4393 26.234C87.0366 26.1033 87.8673 26.038 88.9313 26.038H89.2393V25.576C89.2393 25.0067 89.1226 24.596 88.8893 24.344C88.6559 24.0827 88.2779 23.952 87.7553 23.952C86.9713 23.952 86.1919 24.1947 85.4173 24.68L85.0393 23.854C85.3939 23.602 85.8186 23.4013 86.3133 23.252C86.8173 23.0933 87.3026 23.014 87.7693 23.014ZM87.3213 29.202C87.8813 29.202 88.3386 29.0153 88.6933 28.642C89.0573 28.2593 89.2393 27.7693 89.2393 27.172V26.766H88.9873C88.1659 26.766 87.5406 26.8033 87.1113 26.878C86.6819 26.9433 86.3739 27.06 86.1873 27.228C86.0099 27.3867 85.9213 27.6247 85.9213 27.942C85.9213 28.306 86.0519 28.6093 86.3133 28.852C86.5839 29.0853 86.9199 29.202 87.3213 29.202ZM95.4171 29.188C95.6224 29.188 95.8278 29.174 96.0331 29.146L95.9771 30.042C95.7624 30.0793 95.5291 30.098 95.2771 30.098C94.4558 30.098 93.8351 29.8833 93.4151 29.454C93.0044 29.0247 92.7991 28.4273 92.7991 27.662V24.078H91.4691V23.182H92.7991V21.11H93.9331V23.182H95.8651V24.078H93.9331V27.578C93.9331 28.6513 94.4278 29.188 95.4171 29.188ZM106.5 26.766H101.516C101.554 27.5593 101.768 28.1613 102.16 28.572C102.552 28.9733 103.108 29.174 103.826 29.174C104.62 29.174 105.348 28.9033 106.01 28.362L106.388 29.188C106.09 29.468 105.707 29.692 105.24 29.86C104.774 30.0187 104.298 30.098 103.812 30.098C102.748 30.098 101.908 29.7853 101.292 29.16C100.686 28.5347 100.382 27.6713 100.382 26.57C100.382 25.87 100.518 25.254 100.788 24.722C101.059 24.1807 101.437 23.7607 101.922 23.462C102.417 23.1633 102.977 23.014 103.602 23.014C104.508 23.014 105.217 23.3127 105.73 23.91C106.244 24.498 106.5 25.31 106.5 26.346V26.766ZM103.616 23.896C103.019 23.896 102.538 24.0827 102.174 24.456C101.82 24.8293 101.61 25.3567 101.544 26.038H105.506C105.488 25.3473 105.315 24.82 104.988 24.456C104.662 24.0827 104.204 23.896 103.616 23.896ZM111.601 23.014C113.234 23.014 114.051 23.9147 114.051 25.716V30H112.917V25.786C112.917 25.1513 112.791 24.6893 112.539 24.4C112.296 24.1107 111.904 23.966 111.363 23.966C110.738 23.966 110.238 24.1573 109.865 24.54C109.492 24.9227 109.305 25.4407 109.305 26.094V30H108.171V23.182H109.291V24.302C109.515 23.882 109.828 23.5647 110.229 23.35C110.63 23.126 111.088 23.014 111.601 23.014ZM122.232 23.182V29.538C122.232 30.5553 121.971 31.3207 121.448 31.834C120.925 32.3567 120.151 32.618 119.124 32.618C117.929 32.618 116.926 32.31 116.114 31.694L116.492 30.854C116.949 31.1527 117.379 31.3673 117.78 31.498C118.181 31.6287 118.629 31.694 119.124 31.694C119.777 31.694 120.272 31.5167 120.608 31.162C120.944 30.8167 121.112 30.308 121.112 29.636V28.432C120.916 28.8707 120.613 29.2067 120.202 29.44C119.801 29.6733 119.325 29.79 118.774 29.79C118.177 29.79 117.645 29.65 117.178 29.37C116.721 29.09 116.361 28.6933 116.1 28.18C115.848 27.6667 115.722 27.074 115.722 26.402C115.722 25.73 115.848 25.1373 116.1 24.624C116.361 24.1107 116.721 23.714 117.178 23.434C117.645 23.154 118.177 23.014 118.774 23.014C119.315 23.014 119.787 23.1307 120.188 23.364C120.589 23.5973 120.893 23.9287 121.098 24.358V23.182H122.232ZM118.998 28.852C119.651 28.852 120.165 28.6373 120.538 28.208C120.911 27.7693 121.098 27.1673 121.098 26.402C121.098 25.646 120.911 25.0533 120.538 24.624C120.174 24.1853 119.661 23.966 118.998 23.966C118.335 23.966 117.813 24.1853 117.43 24.624C117.057 25.0533 116.87 25.646 116.87 26.402C116.87 27.1673 117.057 27.7693 117.43 28.208C117.813 28.6373 118.335 28.852 118.998 28.852ZM127.103 23.014C127.971 23.014 128.615 23.238 129.035 23.686C129.465 24.1247 129.679 24.7967 129.679 25.702V30H128.573V28.838C128.396 29.2393 128.125 29.552 127.761 29.776C127.397 29.9907 126.977 30.098 126.501 30.098C126.063 30.098 125.657 30.0093 125.283 29.832C124.919 29.6547 124.63 29.4073 124.415 29.09C124.201 28.7727 124.093 28.4227 124.093 28.04C124.093 27.5267 124.224 27.13 124.485 26.85C124.747 26.5607 125.176 26.3553 125.773 26.234C126.371 26.1033 127.201 26.038 128.265 26.038H128.573V25.576C128.573 25.0067 128.457 24.596 128.223 24.344C127.99 24.0827 127.612 23.952 127.089 23.952C126.305 23.952 125.526 24.1947 124.751 24.68L124.373 23.854C124.728 23.602 125.153 23.4013 125.647 23.252C126.151 23.0933 126.637 23.014 127.103 23.014ZM126.655 29.202C127.215 29.202 127.673 29.0153 128.027 28.642C128.391 28.2593 128.573 27.7693 128.573 27.172V26.766H128.321C127.5 26.766 126.875 26.8033 126.445 26.878C126.016 26.9433 125.708 27.06 125.521 27.228C125.344 27.3867 125.255 27.6247 125.255 27.942C125.255 28.306 125.386 28.6093 125.647 28.852C125.918 29.0853 126.254 29.202 126.655 29.202ZM137.859 23.182V29.538C137.859 30.5553 137.598 31.3207 137.075 31.834C136.552 32.3567 135.778 32.618 134.751 32.618C133.556 32.618 132.553 32.31 131.741 31.694L132.119 30.854C132.576 31.1527 133.006 31.3673 133.407 31.498C133.808 31.6287 134.256 31.694 134.751 31.694C135.404 31.694 135.899 31.5167 136.235 31.162C136.571 30.8167 136.739 30.308 136.739 29.636V28.432C136.543 28.8707 136.24 29.2067 135.829 29.44C135.428 29.6733 134.952 29.79 134.401 29.79C133.804 29.79 133.272 29.65 132.805 29.37C132.348 29.09 131.988 28.6933 131.727 28.18C131.475 27.6667 131.349 27.074 131.349 26.402C131.349 25.73 131.475 25.1373 131.727 24.624C131.988 24.1107 132.348 23.714 132.805 23.434C133.272 23.154 133.804 23.014 134.401 23.014C134.942 23.014 135.414 23.1307 135.815 23.364C136.216 23.5973 136.52 23.9287 136.725 24.358V23.182H137.859ZM134.625 28.852C135.278 28.852 135.792 28.6373 136.165 28.208C136.538 27.7693 136.725 27.1673 136.725 26.402C136.725 25.646 136.538 25.0533 136.165 24.624C135.801 24.1853 135.288 23.966 134.625 23.966C133.962 23.966 133.44 24.1853 133.057 24.624C132.684 25.0533 132.497 25.646 132.497 26.402C132.497 27.1673 132.684 27.7693 133.057 28.208C133.44 28.6373 133.962 28.852 134.625 28.852ZM145.67 26.766H140.686C140.724 27.5593 140.938 28.1613 141.33 28.572C141.722 28.9733 142.278 29.174 142.996 29.174C143.79 29.174 144.518 28.9033 145.18 28.362L145.558 29.188C145.26 29.468 144.877 29.692 144.41 29.86C143.944 30.0187 143.468 30.098 142.982 30.098C141.918 30.098 141.078 29.7853 140.462 29.16C139.856 28.5347 139.552 27.6713 139.552 26.57C139.552 25.87 139.688 25.254 139.958 24.722C140.229 24.1807 140.607 23.7607 141.092 23.462C141.587 23.1633 142.147 23.014 142.772 23.014C143.678 23.014 144.387 23.3127 144.9 23.91C145.414 24.498 145.67 25.31 145.67 26.346V26.766ZM142.786 23.896C142.189 23.896 141.708 24.0827 141.344 24.456C140.99 24.8293 140.78 25.3567 140.714 26.038H144.676C144.658 25.3473 144.485 24.82 144.158 24.456C143.832 24.0827 143.374 23.896 142.786 23.896ZM149.651 30.098C148.503 30.098 147.593 29.804 146.921 29.216L147.299 28.376C147.663 28.6653 148.032 28.8753 148.405 29.006C148.788 29.1273 149.217 29.188 149.693 29.188C150.197 29.188 150.58 29.104 150.841 28.936C151.112 28.7587 151.247 28.5067 151.247 28.18C151.247 27.9093 151.158 27.6947 150.981 27.536C150.804 27.3773 150.51 27.2513 150.099 27.158L148.951 26.892C148.372 26.7613 147.929 26.5373 147.621 26.22C147.313 25.9027 147.159 25.5107 147.159 25.044C147.159 24.4373 147.397 23.9473 147.873 23.574C148.349 23.2007 148.984 23.014 149.777 23.014C150.253 23.014 150.706 23.0933 151.135 23.252C151.564 23.4013 151.924 23.6207 152.213 23.91L151.835 24.736C151.21 24.204 150.524 23.938 149.777 23.938C149.301 23.938 148.928 24.0313 148.657 24.218C148.396 24.3953 148.265 24.6473 148.265 24.974C148.265 25.2447 148.344 25.464 148.503 25.632C148.671 25.7907 148.937 25.912 149.301 25.996L150.463 26.276C151.098 26.4253 151.569 26.654 151.877 26.962C152.185 27.2607 152.339 27.6527 152.339 28.138C152.339 28.7353 152.096 29.2113 151.611 29.566C151.135 29.9207 150.482 30.098 149.651 30.098ZM163.697 23.196L159.665 32.52H158.503L159.651 29.916L156.767 23.196H157.971L160.253 28.768L162.563 23.196H163.697ZM167.614 30.098C166.97 30.098 166.401 29.9533 165.906 29.664C165.421 29.3747 165.043 28.964 164.772 28.432C164.511 27.8907 164.38 27.2653 164.38 26.556C164.38 25.8467 164.511 25.226 164.772 24.694C165.043 24.1527 165.421 23.7373 165.906 23.448C166.401 23.1587 166.97 23.014 167.614 23.014C168.258 23.014 168.828 23.1587 169.322 23.448C169.817 23.7373 170.195 24.1527 170.456 24.694C170.727 25.226 170.862 25.8467 170.862 26.556C170.862 27.2653 170.727 27.8907 170.456 28.432C170.195 28.964 169.817 29.3747 169.322 29.664C168.828 29.9533 168.258 30.098 167.614 30.098ZM167.614 29.16C168.286 29.16 168.8 28.9407 169.154 28.502C169.518 28.054 169.7 27.4053 169.7 26.556C169.7 25.7253 169.518 25.086 169.154 24.638C168.79 24.1807 168.277 23.952 167.614 23.952C166.952 23.952 166.438 24.1807 166.074 24.638C165.71 25.086 165.528 25.7253 165.528 26.556C165.528 27.396 165.706 28.04 166.06 28.488C166.424 28.936 166.942 29.16 167.614 29.16ZM178.292 23.182V30H177.186V28.838C176.971 29.2487 176.668 29.5613 176.276 29.776C175.893 29.9907 175.459 30.098 174.974 30.098C174.162 30.098 173.551 29.874 173.14 29.426C172.729 28.9687 172.524 28.2967 172.524 27.41V23.182H173.658V27.382C173.658 27.9887 173.779 28.4367 174.022 28.726C174.265 29.006 174.647 29.146 175.17 29.146C175.767 29.146 176.248 28.9547 176.612 28.572C176.976 28.18 177.158 27.6667 177.158 27.032V23.182H178.292ZM184.264 23.994L183.522 24.064C182.822 24.1293 182.313 24.3487 181.996 24.722C181.688 25.0953 181.534 25.5573 181.534 26.108V30H180.4V23.182H181.506V24.372C181.888 23.5787 182.64 23.1353 183.76 23.042L184.166 23.014L184.264 23.994ZM191.717 23.014C192.585 23.014 193.229 23.238 193.649 23.686C194.078 24.1247 194.293 24.7967 194.293 25.702V30H193.187V28.838C193.009 29.2393 192.739 29.552 192.375 29.776C192.011 29.9907 191.591 30.098 191.115 30.098C190.676 30.098 190.27 30.0093 189.897 29.832C189.533 29.6547 189.243 29.4073 189.029 29.09C188.814 28.7727 188.707 28.4227 188.707 28.04C188.707 27.5267 188.837 27.13 189.099 26.85C189.36 26.5607 189.789 26.3553 190.387 26.234C190.984 26.1033 191.815 26.038 192.879 26.038H193.187V25.576C193.187 25.0067 193.07 24.596 192.837 24.344C192.603 24.0827 192.225 23.952 191.703 23.952C190.919 23.952 190.139 24.1947 189.365 24.68L188.987 23.854C189.341 23.602 189.766 23.4013 190.261 23.252C190.765 23.0933 191.25 23.014 191.717 23.014ZM191.269 29.202C191.829 29.202 192.286 29.0153 192.641 28.642C193.005 28.2593 193.187 27.7693 193.187 27.172V26.766H192.935C192.113 26.766 191.488 26.8033 191.059 26.878C190.629 26.9433 190.321 27.06 190.135 27.228C189.957 27.3867 189.869 27.6247 189.869 27.942C189.869 28.306 189.999 28.6093 190.261 28.852C190.531 29.0853 190.867 29.202 191.269 29.202ZM202.108 23.182V30H201.002V28.838C200.788 29.2487 200.484 29.5613 200.092 29.776C199.71 29.9907 199.276 30.098 198.79 30.098C197.978 30.098 197.367 29.874 196.956 29.426C196.546 28.9687 196.34 28.2967 196.34 27.41V23.182H197.474V27.382C197.474 27.9887 197.596 28.4367 197.838 28.726C198.081 29.006 198.464 29.146 198.986 29.146C199.584 29.146 200.064 28.9547 200.428 28.572C200.792 28.18 200.974 27.6667 200.974 27.032V23.182H202.108ZM210.264 20.13V30H209.13V28.754C208.925 29.1833 208.621 29.5147 208.22 29.748C207.828 29.9813 207.366 30.098 206.834 30.098C206.237 30.098 205.709 29.9487 205.252 29.65C204.795 29.3513 204.44 28.936 204.188 28.404C203.936 27.8627 203.81 27.2373 203.81 26.528C203.81 25.828 203.936 25.212 204.188 24.68C204.44 24.148 204.795 23.7373 205.252 23.448C205.709 23.1587 206.237 23.014 206.834 23.014C207.366 23.014 207.828 23.1307 208.22 23.364C208.621 23.5973 208.925 23.9287 209.13 24.358V20.13H210.264ZM207.058 29.16C207.721 29.16 208.229 28.936 208.584 28.488C208.948 28.0307 209.13 27.3867 209.13 26.556C209.13 25.7253 208.948 25.086 208.584 24.638C208.229 24.19 207.721 23.966 207.058 23.966C206.395 23.966 205.877 24.19 205.504 24.638C205.14 25.086 204.958 25.716 204.958 26.528C204.958 27.3587 205.14 28.0073 205.504 28.474C205.877 28.9313 206.395 29.16 207.058 29.16ZM212.364 23.182H213.498V30H212.364V23.182ZM213.624 20.228V21.502H212.252V20.228H213.624ZM221.33 26.766H216.346C216.384 27.5593 216.598 28.1613 216.99 28.572C217.382 28.9733 217.938 29.174 218.656 29.174C219.45 29.174 220.178 28.9033 220.84 28.362L221.218 29.188C220.92 29.468 220.537 29.692 220.07 29.86C219.604 30.0187 219.128 30.098 218.642 30.098C217.578 30.098 216.738 29.7853 216.122 29.16C215.516 28.5347 215.212 27.6713 215.212 26.57C215.212 25.87 215.348 25.254 215.618 24.722C215.889 24.1807 216.267 23.7607 216.752 23.462C217.247 23.1633 217.807 23.014 218.432 23.014C219.338 23.014 220.047 23.3127 220.56 23.91C221.074 24.498 221.33 25.31 221.33 26.346V26.766ZM218.446 23.896C217.849 23.896 217.368 24.0827 217.004 24.456C216.65 24.8293 216.44 25.3567 216.374 26.038H220.336C220.318 25.3473 220.145 24.82 219.818 24.456C219.492 24.0827 219.034 23.896 218.446 23.896ZM226.431 23.014C228.065 23.014 228.881 23.9147 228.881 25.716V30H227.747V25.786C227.747 25.1513 227.621 24.6893 227.369 24.4C227.127 24.1107 226.735 23.966 226.193 23.966C225.568 23.966 225.069 24.1573 224.695 24.54C224.322 24.9227 224.135 25.4407 224.135 26.094V30H223.001V23.182H224.121V24.302C224.345 23.882 224.658 23.5647 225.059 23.35C225.461 23.126 225.918 23.014 226.431 23.014ZM233.842 30.098C233.17 30.098 232.587 29.9533 232.092 29.664C231.598 29.3747 231.215 28.9687 230.944 28.446C230.683 27.914 230.552 27.2933 230.552 26.584C230.552 25.8747 230.688 25.254 230.958 24.722C231.238 24.1807 231.626 23.7607 232.12 23.462C232.624 23.1633 233.212 23.014 233.884 23.014C234.342 23.014 234.79 23.098 235.228 23.266C235.667 23.4247 236.022 23.6393 236.292 23.91L235.914 24.75C235.27 24.2273 234.617 23.966 233.954 23.966C233.254 23.966 232.708 24.1947 232.316 24.652C231.924 25.1093 231.728 25.7533 231.728 26.584C231.728 27.4053 231.924 28.04 232.316 28.488C232.708 28.936 233.254 29.16 233.954 29.16C234.617 29.16 235.27 28.8987 235.914 28.376L236.292 29.216C236.003 29.4867 235.639 29.7013 235.2 29.86C234.762 30.0187 234.309 30.098 233.842 30.098ZM243.369 26.766H238.385C238.423 27.5593 238.637 28.1613 239.029 28.572C239.421 28.9733 239.977 29.174 240.695 29.174C241.489 29.174 242.217 28.9033 242.879 28.362L243.257 29.188C242.959 29.468 242.576 29.692 242.109 29.86C241.643 30.0187 241.167 30.098 240.681 30.098C239.617 30.098 238.777 29.7853 238.161 29.16C237.555 28.5347 237.251 27.6713 237.251 26.57C237.251 25.87 237.387 25.254 237.657 24.722C237.928 24.1807 238.306 23.7607 238.791 23.462C239.286 23.1633 239.846 23.014 240.471 23.014C241.377 23.014 242.086 23.3127 242.599 23.91C243.113 24.498 243.369 25.31 243.369 26.346V26.766ZM240.485 23.896C239.888 23.896 239.407 24.0827 239.043 24.456C238.689 24.8293 238.479 25.3567 238.413 26.038H242.375C242.357 25.3473 242.184 24.82 241.857 24.456C241.531 24.0827 241.073 23.896 240.485 23.896ZM246.3 28.572V29.58C246.3 29.972 246.235 30.3267 246.104 30.644C245.983 30.9707 245.768 31.288 245.46 31.596L244.928 31.19C245.292 30.7887 245.498 30.392 245.544 30H244.872V28.572H246.3ZM255.279 23.014C255.876 23.014 256.403 23.1633 256.861 23.462C257.318 23.7607 257.673 24.1807 257.925 24.722C258.177 25.254 258.303 25.8747 258.303 26.584C258.303 27.2933 258.177 27.914 257.925 28.446C257.673 28.9687 257.318 29.3747 256.861 29.664C256.413 29.9533 255.885 30.098 255.279 30.098C254.747 30.098 254.28 29.9813 253.879 29.748C253.487 29.5147 253.188 29.1833 252.983 28.754V32.52H251.849V23.182H252.983V24.358C253.188 23.9287 253.487 23.5973 253.879 23.364C254.28 23.1307 254.747 23.014 255.279 23.014ZM255.055 29.16C255.717 29.16 256.231 28.936 256.595 28.488C256.959 28.04 257.141 27.4053 257.141 26.584C257.141 25.7627 256.959 25.1233 256.595 24.666C256.231 24.1993 255.717 23.966 255.055 23.966C254.392 23.966 253.879 24.19 253.515 24.638C253.16 25.086 252.983 25.7253 252.983 26.556C252.983 27.3867 253.16 28.0307 253.515 28.488C253.879 28.936 254.392 29.16 255.055 29.16ZM263.861 23.994L263.119 24.064C262.419 24.1293 261.911 24.3487 261.593 24.722C261.285 25.0953 261.131 25.5573 261.131 26.108V30H259.997V23.182H261.103V24.372C261.486 23.5787 262.237 23.1353 263.357 23.042L263.763 23.014L263.861 23.994ZM267.624 30.098C266.98 30.098 266.411 29.9533 265.916 29.664C265.431 29.3747 265.053 28.964 264.782 28.432C264.521 27.8907 264.39 27.2653 264.39 26.556C264.39 25.8467 264.521 25.226 264.782 24.694C265.053 24.1527 265.431 23.7373 265.916 23.448C266.411 23.1587 266.98 23.014 267.624 23.014C268.268 23.014 268.837 23.1587 269.332 23.448C269.827 23.7373 270.205 24.1527 270.466 24.694C270.737 25.226 270.872 25.8467 270.872 26.556C270.872 27.2653 270.737 27.8907 270.466 28.432C270.205 28.964 269.827 29.3747 269.332 29.664C268.837 29.9533 268.268 30.098 267.624 30.098ZM267.624 29.16C268.296 29.16 268.809 28.9407 269.164 28.502C269.528 28.054 269.71 27.4053 269.71 26.556C269.71 25.7253 269.528 25.086 269.164 24.638C268.8 24.1807 268.287 23.952 267.624 23.952C266.961 23.952 266.448 24.1807 266.084 24.638C265.72 25.086 265.538 25.7253 265.538 26.556C265.538 27.396 265.715 28.04 266.07 28.488C266.434 28.936 266.952 29.16 267.624 29.16ZM280.15 23.014C281.662 23.014 282.418 23.9147 282.418 25.716V30H281.284V25.772C281.284 25.1467 281.172 24.6893 280.948 24.4C280.733 24.1107 280.383 23.966 279.898 23.966C279.328 23.966 278.88 24.1573 278.554 24.54C278.227 24.9227 278.064 25.4453 278.064 26.108V30H276.93V25.772C276.93 25.1373 276.818 24.68 276.594 24.4C276.37 24.1107 276.015 23.966 275.53 23.966C274.96 23.966 274.512 24.1573 274.186 24.54C273.859 24.9227 273.696 25.4453 273.696 26.108V30H272.562V23.182H273.682V24.26C273.887 23.8587 274.172 23.5507 274.536 23.336C274.9 23.1213 275.32 23.014 275.796 23.014C276.85 23.014 277.546 23.462 277.882 24.358C278.078 23.938 278.376 23.6113 278.778 23.378C279.179 23.1353 279.636 23.014 280.15 23.014ZM287.312 30.098C286.668 30.098 286.098 29.9533 285.604 29.664C285.118 29.3747 284.74 28.964 284.47 28.432C284.208 27.8907 284.078 27.2653 284.078 26.556C284.078 25.8467 284.208 25.226 284.47 24.694C284.74 24.1527 285.118 23.7373 285.604 23.448C286.098 23.1587 286.668 23.014 287.312 23.014C287.956 23.014 288.525 23.1587 289.02 23.448C289.514 23.7373 289.892 24.1527 290.154 24.694C290.424 25.226 290.56 25.8467 290.56 26.556C290.56 27.2653 290.424 27.8907 290.154 28.432C289.892 28.964 289.514 29.3747 289.02 29.664C288.525 29.9533 287.956 30.098 287.312 30.098ZM287.312 29.16C287.984 29.16 288.497 28.9407 288.852 28.502C289.216 28.054 289.398 27.4053 289.398 26.556C289.398 25.7253 289.216 25.086 288.852 24.638C288.488 24.1807 287.974 23.952 287.312 23.952C286.649 23.952 286.136 24.1807 285.772 24.638C285.408 25.086 285.226 25.7253 285.226 26.556C285.226 27.396 285.403 28.04 285.758 28.488C286.122 28.936 286.64 29.16 287.312 29.16ZM295.232 29.188C295.437 29.188 295.642 29.174 295.848 29.146L295.792 30.042C295.577 30.0793 295.344 30.098 295.092 30.098C294.27 30.098 293.65 29.8833 293.23 29.454C292.819 29.0247 292.614 28.4273 292.614 27.662V24.078H291.284V23.182H292.614V21.11H293.748V23.182H295.68V24.078H293.748V27.578C293.748 28.6513 294.242 29.188 295.232 29.188ZM302.705 26.766H297.721C297.759 27.5593 297.973 28.1613 298.365 28.572C298.757 28.9733 299.313 29.174 300.031 29.174C300.825 29.174 301.553 28.9033 302.215 28.362L302.593 29.188C302.295 29.468 301.912 29.692 301.445 29.86C300.979 30.0187 300.503 30.098 300.017 30.098C298.953 30.098 298.113 29.7853 297.497 29.16C296.891 28.5347 296.587 27.6713 296.587 26.57C296.587 25.87 296.723 25.254 296.993 24.722C297.264 24.1807 297.642 23.7607 298.127 23.462C298.622 23.1633 299.182 23.014 299.807 23.014C300.713 23.014 301.422 23.3127 301.935 23.91C302.449 24.498 302.705 25.31 302.705 26.346V26.766ZM299.821 23.896C299.224 23.896 298.743 24.0827 298.379 24.456C298.025 24.8293 297.815 25.3567 297.749 26.038H301.711C301.693 25.3473 301.52 24.82 301.193 24.456C300.867 24.0827 300.409 23.896 299.821 23.896ZM306.686 30.098C305.538 30.098 304.628 29.804 303.956 29.216L304.334 28.376C304.698 28.6653 305.067 28.8753 305.44 29.006C305.823 29.1273 306.252 29.188 306.728 29.188C307.232 29.188 307.615 29.104 307.876 28.936C308.147 28.7587 308.282 28.5067 308.282 28.18C308.282 27.9093 308.194 27.6947 308.016 27.536C307.839 27.3773 307.545 27.2513 307.134 27.158L305.986 26.892C305.408 26.7613 304.964 26.5373 304.656 26.22C304.348 25.9027 304.194 25.5107 304.194 25.044C304.194 24.4373 304.432 23.9473 304.908 23.574C305.384 23.2007 306.019 23.014 306.812 23.014C307.288 23.014 307.741 23.0933 308.17 23.252C308.6 23.4013 308.959 23.6207 309.248 23.91L308.87 24.736C308.245 24.204 307.559 23.938 306.812 23.938C306.336 23.938 305.963 24.0313 305.692 24.218C305.431 24.3953 305.3 24.6473 305.3 24.974C305.3 25.2447 305.38 25.464 305.538 25.632C305.706 25.7907 305.972 25.912 306.336 25.996L307.498 26.276C308.133 26.4253 308.604 26.654 308.912 26.962C309.22 27.2607 309.374 27.6527 309.374 28.138C309.374 28.7353 309.132 29.2113 308.646 29.566C308.17 29.9207 307.517 30.098 306.686 30.098ZM75.1511 43.196L71.1191 52.52H69.9571L71.1051 49.916L68.2211 43.196H69.4251L71.7071 48.768L74.0171 43.196H75.1511ZM79.0684 50.098C78.4244 50.098 77.8551 49.9533 77.3604 49.664C76.8751 49.3747 76.4971 48.964 76.2264 48.432C75.9651 47.8907 75.8344 47.2653 75.8344 46.556C75.8344 45.8467 75.9651 45.226 76.2264 44.694C76.4971 44.1527 76.8751 43.7373 77.3604 43.448C77.8551 43.1587 78.4244 43.014 79.0684 43.014C79.7124 43.014 80.2818 43.1587 80.7764 43.448C81.2711 43.7373 81.6491 44.1527 81.9104 44.694C82.1811 45.226 82.3164 45.8467 82.3164 46.556C82.3164 47.2653 82.1811 47.8907 81.9104 48.432C81.6491 48.964 81.2711 49.3747 80.7764 49.664C80.2818 49.9533 79.7124 50.098 79.0684 50.098ZM79.0684 49.16C79.7404 49.16 80.2538 48.9407 80.6084 48.502C80.9724 48.054 81.1544 47.4053 81.1544 46.556C81.1544 45.7253 80.9724 45.086 80.6084 44.638C80.2444 44.1807 79.7311 43.952 79.0684 43.952C78.4058 43.952 77.8924 44.1807 77.5284 44.638C77.1644 45.086 76.9824 45.7253 76.9824 46.556C76.9824 47.396 77.1598 48.04 77.5144 48.488C77.8784 48.936 78.3964 49.16 79.0684 49.16ZM89.7461 43.182V50H88.6401V48.838C88.4254 49.2487 88.1221 49.5613 87.7301 49.776C87.3474 49.9907 86.9134 50.098 86.4281 50.098C85.6161 50.098 85.0047 49.874 84.5941 49.426C84.1834 48.9687 83.9781 48.2967 83.9781 47.41V43.182H85.1121V47.382C85.1121 47.9887 85.2334 48.4367 85.4761 48.726C85.7187 49.006 86.1014 49.146 86.6241 49.146C87.2214 49.146 87.7021 48.9547 88.0661 48.572C88.4301 48.18 88.6121 47.6667 88.6121 47.032V43.182H89.7461ZM95.7177 43.994L94.9757 44.064C94.2757 44.1293 93.767 44.3487 93.4497 44.722C93.1417 45.0953 92.9877 45.5573 92.9877 46.108V50H91.8537V43.182H92.9597V44.372C93.3424 43.5787 94.0937 43.1353 95.2137 43.042L95.6197 43.014L95.7177 43.994ZM103.829 43.014C104.426 43.014 104.953 43.1587 105.411 43.448C105.868 43.7373 106.223 44.148 106.475 44.68C106.727 45.212 106.853 45.828 106.853 46.528C106.853 47.2373 106.727 47.8627 106.475 48.404C106.223 48.936 105.868 49.3513 105.411 49.65C104.953 49.9487 104.426 50.098 103.829 50.098C103.297 50.098 102.83 49.9813 102.429 49.748C102.037 49.5147 101.738 49.1833 101.533 48.754V50H100.399V40.13H101.533V44.358C101.738 43.9287 102.037 43.5973 102.429 43.364C102.83 43.1307 103.297 43.014 103.829 43.014ZM103.605 49.16C104.267 49.16 104.781 48.9313 105.145 48.474C105.509 48.0073 105.691 47.3587 105.691 46.528C105.691 45.716 105.509 45.086 105.145 44.638C104.781 44.19 104.267 43.966 103.605 43.966C102.942 43.966 102.429 44.19 102.065 44.638C101.71 45.086 101.533 45.7253 101.533 46.556C101.533 47.3867 101.71 48.0307 102.065 48.488C102.429 48.936 102.942 49.16 103.605 49.16ZM112.411 43.994L111.669 44.064C110.969 44.1293 110.46 44.3487 110.143 44.722C109.835 45.0953 109.681 45.5573 109.681 46.108V50H108.547V43.182H109.653V44.372C110.036 43.5787 110.787 43.1353 111.907 43.042L112.313 43.014L112.411 43.994ZM116.2 43.014C117.068 43.014 117.712 43.238 118.132 43.686C118.561 44.1247 118.776 44.7967 118.776 45.702V50H117.67V48.838C117.493 49.2393 117.222 49.552 116.858 49.776C116.494 49.9907 116.074 50.098 115.598 50.098C115.159 50.098 114.753 50.0093 114.38 49.832C114.016 49.6547 113.727 49.4073 113.512 49.09C113.297 48.7727 113.19 48.4227 113.19 48.04C113.19 47.5267 113.321 47.13 113.582 46.85C113.843 46.5607 114.273 46.3553 114.87 46.234C115.467 46.1033 116.298 46.038 117.362 46.038H117.67V45.576C117.67 45.0067 117.553 44.596 117.32 44.344C117.087 44.0827 116.709 43.952 116.186 43.952C115.402 43.952 114.623 44.1947 113.848 44.68L113.47 43.854C113.825 43.602 114.249 43.4013 114.744 43.252C115.248 43.0933 115.733 43.014 116.2 43.014ZM115.752 49.202C116.312 49.202 116.769 49.0153 117.124 48.642C117.488 48.2593 117.67 47.7693 117.67 47.172V46.766H117.418C116.597 46.766 115.971 46.8033 115.542 46.878C115.113 46.9433 114.805 47.06 114.618 47.228C114.441 47.3867 114.352 47.6247 114.352 47.942C114.352 48.306 114.483 48.6093 114.744 48.852C115.015 49.0853 115.351 49.202 115.752 49.202ZM124.282 43.014C125.915 43.014 126.732 43.9147 126.732 45.716V50H125.598V45.786C125.598 45.1513 125.472 44.6893 125.22 44.4C124.977 44.1107 124.585 43.966 124.044 43.966C123.418 43.966 122.919 44.1573 122.546 44.54C122.172 44.9227 121.986 45.4407 121.986 46.094V50H120.852V43.182H121.972V44.302C122.196 43.882 122.508 43.5647 122.91 43.35C123.311 43.126 123.768 43.014 124.282 43.014ZM134.857 40.13V50H133.723V48.754C133.517 49.1833 133.214 49.5147 132.813 49.748C132.421 49.9813 131.959 50.098 131.427 50.098C130.829 50.098 130.302 49.9487 129.845 49.65C129.387 49.3513 129.033 48.936 128.781 48.404C128.529 47.8627 128.403 47.2373 128.403 46.528C128.403 45.828 128.529 45.212 128.781 44.68C129.033 44.148 129.387 43.7373 129.845 43.448C130.302 43.1587 130.829 43.014 131.427 43.014C131.959 43.014 132.421 43.1307 132.813 43.364C133.214 43.5973 133.517 43.9287 133.723 44.358V40.13H134.857ZM131.651 49.16C132.313 49.16 132.822 48.936 133.177 48.488C133.541 48.0307 133.723 47.3867 133.723 46.556C133.723 45.7253 133.541 45.086 133.177 44.638C132.822 44.19 132.313 43.966 131.651 43.966C130.988 43.966 130.47 44.19 130.097 44.638C129.733 45.086 129.551 45.716 129.551 46.528C129.551 47.3587 129.733 48.0073 130.097 48.474C130.47 48.9313 130.988 49.16 131.651 49.16ZM143.339 43.014C144.207 43.014 144.851 43.238 145.271 43.686C145.7 44.1247 145.915 44.7967 145.915 45.702V50H144.809V48.838C144.631 49.2393 144.361 49.552 143.997 49.776C143.633 49.9907 143.213 50.098 142.737 50.098C142.298 50.098 141.892 50.0093 141.519 49.832C141.155 49.6547 140.865 49.4073 140.651 49.09C140.436 48.7727 140.329 48.4227 140.329 48.04C140.329 47.5267 140.459 47.13 140.721 46.85C140.982 46.5607 141.411 46.3553 142.009 46.234C142.606 46.1033 143.437 46.038 144.501 46.038H144.809V45.576C144.809 45.0067 144.692 44.596 144.459 44.344C144.225 44.0827 143.847 43.952 143.325 43.952C142.541 43.952 141.761 44.1947 140.987 44.68L140.609 43.854C140.963 43.602 141.388 43.4013 141.883 43.252C142.387 43.0933 142.872 43.014 143.339 43.014ZM142.891 49.202C143.451 49.202 143.908 49.0153 144.263 48.642C144.627 48.2593 144.809 47.7693 144.809 47.172V46.766H144.557C143.735 46.766 143.11 46.8033 142.681 46.878C142.251 46.9433 141.943 47.06 141.757 47.228C141.579 47.3867 141.491 47.6247 141.491 47.942C141.491 48.306 141.621 48.6093 141.883 48.852C142.153 49.0853 142.489 49.202 142.891 49.202ZM151.42 43.014C153.054 43.014 153.87 43.9147 153.87 45.716V50H152.736V45.786C152.736 45.1513 152.61 44.6893 152.358 44.4C152.116 44.1107 151.724 43.966 151.182 43.966C150.557 43.966 150.058 44.1573 149.684 44.54C149.311 44.9227 149.124 45.4407 149.124 46.094V50H147.99V43.182H149.11V44.302C149.334 43.882 149.647 43.5647 150.048 43.35C150.45 43.126 150.907 43.014 151.42 43.014ZM161.995 40.13V50H160.861V48.754C160.656 49.1833 160.353 49.5147 159.951 49.748C159.559 49.9813 159.097 50.098 158.565 50.098C157.968 50.098 157.441 49.9487 156.983 49.65C156.526 49.3513 156.171 48.936 155.919 48.404C155.667 47.8627 155.541 47.2373 155.541 46.528C155.541 45.828 155.667 45.212 155.919 44.68C156.171 44.148 156.526 43.7373 156.983 43.448C157.441 43.1587 157.968 43.014 158.565 43.014C159.097 43.014 159.559 43.1307 159.951 43.364C160.353 43.5973 160.656 43.9287 160.861 44.358V40.13H161.995ZM158.789 49.16C159.452 49.16 159.961 48.936 160.315 48.488C160.679 48.0307 160.861 47.3867 160.861 46.556C160.861 45.7253 160.679 45.086 160.315 44.638C159.961 44.19 159.452 43.966 158.789 43.966C158.127 43.966 157.609 44.19 157.235 44.638C156.871 45.086 156.689 45.716 156.689 46.528C156.689 47.3587 156.871 48.0073 157.235 48.474C157.609 48.9313 158.127 49.16 158.789 49.16ZM173.809 43.182V49.538C173.809 50.5553 173.548 51.3207 173.025 51.834C172.503 52.3567 171.728 52.618 170.701 52.618C169.507 52.618 168.503 52.31 167.691 51.694L168.069 50.854C168.527 51.1527 168.956 51.3673 169.357 51.498C169.759 51.6287 170.207 51.694 170.701 51.694C171.355 51.694 171.849 51.5167 172.185 51.162C172.521 50.8167 172.689 50.308 172.689 49.636V48.432C172.493 48.8707 172.19 49.2067 171.779 49.44C171.378 49.6733 170.902 49.79 170.351 49.79C169.754 49.79 169.222 49.65 168.755 49.37C168.298 49.09 167.939 48.6933 167.677 48.18C167.425 47.6667 167.299 47.074 167.299 46.402C167.299 45.73 167.425 45.1373 167.677 44.624C167.939 44.1107 168.298 43.714 168.755 43.434C169.222 43.154 169.754 43.014 170.351 43.014C170.893 43.014 171.364 43.1307 171.765 43.364C172.167 43.5973 172.47 43.9287 172.675 44.358V43.182H173.809ZM170.575 48.852C171.229 48.852 171.742 48.6373 172.115 48.208C172.489 47.7693 172.675 47.1673 172.675 46.402C172.675 45.646 172.489 45.0533 172.115 44.624C171.751 44.1853 171.238 43.966 170.575 43.966C169.913 43.966 169.39 44.1853 169.007 44.624C168.634 45.0533 168.447 45.646 168.447 46.402C168.447 47.1673 168.634 47.7693 169.007 48.208C169.39 48.6373 169.913 48.852 170.575 48.852ZM181.62 46.766H176.636C176.674 47.5593 176.888 48.1613 177.28 48.572C177.672 48.9733 178.228 49.174 178.946 49.174C179.74 49.174 180.468 48.9033 181.13 48.362L181.508 49.188C181.21 49.468 180.827 49.692 180.36 49.86C179.894 50.0187 179.418 50.098 178.932 50.098C177.868 50.098 177.028 49.7853 176.412 49.16C175.806 48.5347 175.502 47.6713 175.502 46.57C175.502 45.87 175.638 45.254 175.908 44.722C176.179 44.1807 176.557 43.7607 177.042 43.462C177.537 43.1633 178.097 43.014 178.722 43.014C179.628 43.014 180.337 43.3127 180.85 43.91C181.364 44.498 181.62 45.31 181.62 46.346V46.766ZM178.736 43.896C178.139 43.896 177.658 44.0827 177.294 44.456C176.94 44.8293 176.73 45.3567 176.664 46.038H180.626C180.608 45.3473 180.435 44.82 180.108 44.456C179.782 44.0827 179.324 43.896 178.736 43.896ZM186.246 49.188C186.452 49.188 186.657 49.174 186.862 49.146L186.806 50.042C186.592 50.0793 186.358 50.098 186.106 50.098C185.285 50.098 184.664 49.8833 184.244 49.454C183.834 49.0247 183.628 48.4273 183.628 47.662V44.078H182.298V43.182H183.628V41.11H184.762V43.182H186.694V44.078H184.762V47.578C184.762 48.6513 185.257 49.188 186.246 49.188ZM190.318 50.098C189.17 50.098 188.26 49.804 187.588 49.216L187.966 48.376C188.33 48.6653 188.699 48.8753 189.072 49.006C189.455 49.1273 189.884 49.188 190.36 49.188C190.864 49.188 191.247 49.104 191.508 48.936C191.779 48.7587 191.914 48.5067 191.914 48.18C191.914 47.9093 191.825 47.6947 191.648 47.536C191.471 47.3773 191.177 47.2513 190.766 47.158L189.618 46.892C189.039 46.7613 188.596 46.5373 188.288 46.22C187.98 45.9027 187.826 45.5107 187.826 45.044C187.826 44.4373 188.064 43.9473 188.54 43.574C189.016 43.2007 189.651 43.014 190.444 43.014C190.92 43.014 191.373 43.0933 191.802 43.252C192.231 43.4013 192.591 43.6207 192.88 43.91L192.502 44.736C191.877 44.204 191.191 43.938 190.444 43.938C189.968 43.938 189.595 44.0313 189.324 44.218C189.063 44.3953 188.932 44.6473 188.932 44.974C188.932 45.2447 189.011 45.464 189.17 45.632C189.338 45.7907 189.604 45.912 189.968 45.996L191.13 46.276C191.765 46.4253 192.236 46.654 192.544 46.962C192.852 47.2607 193.006 47.6527 193.006 48.138C193.006 48.7353 192.763 49.2113 192.278 49.566C191.802 49.9207 191.149 50.098 190.318 50.098ZM202.208 43.994L201.466 44.064C200.766 44.1293 200.257 44.3487 199.94 44.722C199.632 45.0953 199.478 45.5573 199.478 46.108V50H198.344V43.182H199.45V44.372C199.833 43.5787 200.584 43.1353 201.704 43.042L202.11 43.014L202.208 43.994ZM208.855 46.766H203.871C203.908 47.5593 204.123 48.1613 204.515 48.572C204.907 48.9733 205.462 49.174 206.181 49.174C206.974 49.174 207.702 48.9033 208.365 48.362L208.743 49.188C208.444 49.468 208.061 49.692 207.595 49.86C207.128 50.0187 206.652 50.098 206.167 50.098C205.103 50.098 204.263 49.7853 203.647 49.16C203.04 48.5347 202.737 47.6713 202.737 46.57C202.737 45.87 202.872 45.254 203.143 44.722C203.413 44.1807 203.791 43.7607 204.277 43.462C204.771 43.1633 205.331 43.014 205.957 43.014C206.862 43.014 207.571 43.3127 208.085 43.91C208.598 44.498 208.855 45.31 208.855 46.346V46.766ZM205.971 43.896C205.373 43.896 204.893 44.0827 204.529 44.456C204.174 44.8293 203.964 45.3567 203.899 46.038H207.861C207.842 45.3473 207.669 44.82 207.343 44.456C207.016 44.0827 206.559 43.896 205.971 43.896ZM212.836 50.098C211.688 50.098 210.778 49.804 210.106 49.216L210.484 48.376C210.848 48.6653 211.216 48.8753 211.59 49.006C211.972 49.1273 212.402 49.188 212.878 49.188C213.382 49.188 213.764 49.104 214.026 48.936C214.296 48.7587 214.432 48.5067 214.432 48.18C214.432 47.9093 214.343 47.6947 214.166 47.536C213.988 47.3773 213.694 47.2513 213.284 47.158L212.136 46.892C211.557 46.7613 211.114 46.5373 210.806 46.22C210.498 45.9027 210.344 45.5107 210.344 45.044C210.344 44.4373 210.582 43.9473 211.058 43.574C211.534 43.2007 212.168 43.014 212.962 43.014C213.438 43.014 213.89 43.0933 214.32 43.252C214.749 43.4013 215.108 43.6207 215.398 43.91L215.02 44.736C214.394 44.204 213.708 43.938 212.962 43.938C212.486 43.938 212.112 44.0313 211.842 44.218C211.58 44.3953 211.45 44.6473 211.45 44.974C211.45 45.2447 211.529 45.464 211.688 45.632C211.856 45.7907 212.122 45.912 212.486 45.996L213.648 46.276C214.282 46.4253 214.754 46.654 215.062 46.962C215.37 47.2607 215.524 47.6527 215.524 48.138C215.524 48.7353 215.281 49.2113 214.796 49.566C214.32 49.9207 213.666 50.098 212.836 50.098ZM222.992 43.182V50H221.886V48.838C221.671 49.2487 221.368 49.5613 220.976 49.776C220.593 49.9907 220.159 50.098 219.674 50.098C218.862 50.098 218.251 49.874 217.84 49.426C217.429 48.9687 217.224 48.2967 217.224 47.41V43.182H218.358V47.382C218.358 47.9887 218.479 48.4367 218.722 48.726C218.965 49.006 219.347 49.146 219.87 49.146C220.467 49.146 220.948 48.9547 221.312 48.572C221.676 48.18 221.858 47.6667 221.858 47.032V43.182H222.992ZM225.1 40.13H226.234V50H225.1V40.13ZM231.35 49.188C231.555 49.188 231.76 49.174 231.966 49.146L231.91 50.042C231.695 50.0793 231.462 50.098 231.21 50.098C230.388 50.098 229.768 49.8833 229.348 49.454C228.937 49.0247 228.732 48.4273 228.732 47.662V44.078H227.402V43.182H228.732V41.11H229.866V43.182H231.798V44.078H229.866V47.578C229.866 48.6513 230.36 49.188 231.35 49.188ZM235.422 50.098C234.274 50.098 233.364 49.804 232.692 49.216L233.07 48.376C233.434 48.6653 233.802 48.8753 234.176 49.006C234.558 49.1273 234.988 49.188 235.464 49.188C235.968 49.188 236.35 49.104 236.612 48.936C236.882 48.7587 237.018 48.5067 237.018 48.18C237.018 47.9093 236.929 47.6947 236.752 47.536C236.574 47.3773 236.28 47.2513 235.87 47.158L234.722 46.892C234.143 46.7613 233.7 46.5373 233.392 46.22C233.084 45.9027 232.93 45.5107 232.93 45.044C232.93 44.4373 233.168 43.9473 233.644 43.574C234.12 43.2007 234.754 43.014 235.548 43.014C236.024 43.014 236.476 43.0933 236.906 43.252C237.335 43.4013 237.694 43.6207 237.984 43.91L237.606 44.736C236.98 44.204 236.294 43.938 235.548 43.938C235.072 43.938 234.698 44.0313 234.428 44.218C234.166 44.3953 234.036 44.6473 234.036 44.974C234.036 45.2447 234.115 45.464 234.274 45.632C234.442 45.7907 234.708 45.912 235.072 45.996L236.234 46.276C236.868 46.4253 237.34 46.654 237.648 46.962C237.956 47.2607 238.11 47.6527 238.11 48.138C238.11 48.7353 237.867 49.2113 237.382 49.566C236.906 49.9207 236.252 50.098 235.422 50.098ZM241.03 48.572V50H239.602V48.572H241.03Z" fill="#3B3B3B"/>
</svg>
