<svg width="271" height="19" viewBox="0 0 271 19" fill="none" xmlns="http://www.w3.org/2000/svg">
<path d="M21.5434 0.899999L16.5834 15H14.8834L11.0834 4.08L7.24344 15H5.54344L0.603438 0.899999H2.68344L6.46344 12.08L10.3634 0.899999L11.8834 0.919999L15.7034 12.14L19.5434 0.899999H21.5434ZM30.76 10.46H23.86C24.0067 12.5267 25.0333 13.56 26.94 13.56C28.06 13.56 29.0733 13.1933 29.98 12.46L30.6 13.88C30.1467 14.2667 29.5867 14.5733 28.92 14.8C28.2533 15.0267 27.5733 15.14 26.88 15.14C25.32 15.14 24.0867 14.6933 23.18 13.8C22.2867 12.9067 21.84 11.6733 21.84 10.1C21.84 9.1 22.0333 8.21333 22.42 7.44C22.82 6.66667 23.3733 6.06667 24.08 5.64C24.8 5.21333 25.6133 5 26.52 5C27.84 5 28.8733 5.42667 29.62 6.28C30.38 7.13333 30.76 8.31333 30.76 9.82V10.46ZM26.56 6.48C25.7867 6.48 25.1667 6.72667 24.7 7.22C24.2467 7.7 23.9733 8.39333 23.88 9.3H29.02C28.98 8.39333 28.7467 7.7 28.32 7.22C27.9067 6.72667 27.32 6.48 26.56 6.48ZM38.2259 5C39.0793 5 39.8326 5.20667 40.4859 5.62C41.1393 6.03333 41.6459 6.62 42.0059 7.38C42.3793 8.14 42.5659 9.02667 42.5659 10.04C42.5659 11.04 42.3793 11.9267 42.0059 12.7C41.6459 13.4733 41.1326 14.0733 40.4659 14.5C39.8126 14.9267 39.0659 15.14 38.2259 15.14C37.4926 15.14 36.8459 14.9867 36.2859 14.68C35.7259 14.36 35.2993 13.9067 35.0059 13.32V15H32.9859V0.899999H35.0059V6.84C35.2993 6.25333 35.7259 5.8 36.2859 5.48C36.8459 5.16 37.4926 5 38.2259 5ZM37.7459 13.54C38.6126 13.54 39.2859 13.2333 39.7659 12.62C40.2593 12.0067 40.5059 11.1467 40.5059 10.04C40.5059 8.94667 40.2659 8.10667 39.7859 7.52C39.3059 6.92 38.6259 6.62 37.7459 6.62C36.8659 6.62 36.1859 6.92 35.7059 7.52C35.2393 8.12 35.0059 8.97333 35.0059 10.08C35.0059 11.1867 35.2393 12.04 35.7059 12.64C36.1859 13.24 36.8659 13.54 37.7459 13.54ZM48.2423 15.14C46.549 15.14 45.1957 14.7267 44.1823 13.9L44.8023 12.44C45.8023 13.2133 46.969 13.6 48.3023 13.6C48.9557 13.6 49.4557 13.4933 49.8023 13.28C50.149 13.0533 50.3223 12.74 50.3223 12.34C50.3223 11.9933 50.2023 11.72 49.9623 11.52C49.7357 11.32 49.3357 11.1533 48.7623 11.02L47.1423 10.66C46.2757 10.46 45.6223 10.1333 45.1823 9.68C44.7423 9.22667 44.5223 8.65333 44.5223 7.96C44.5223 7.08 44.8757 6.36667 45.5823 5.82C46.3023 5.27333 47.2423 5 48.4023 5C49.0957 5 49.7557 5.11333 50.3823 5.34C51.009 5.55333 51.549 5.86 52.0023 6.26L51.3823 7.68C50.4223 6.92 49.429 6.54 48.4023 6.54C47.789 6.54 47.3023 6.66 46.9423 6.9C46.5957 7.14 46.4223 7.46667 46.4223 7.88C46.4223 8.21333 46.529 8.48667 46.7423 8.7C46.969 8.9 47.3223 9.05333 47.8023 9.16L49.4623 9.54C50.409 9.75333 51.1023 10.0867 51.5423 10.54C51.9823 10.98 52.2023 11.56 52.2023 12.28C52.2023 13.16 51.8423 13.86 51.1223 14.38C50.4157 14.8867 49.4557 15.14 48.2423 15.14ZM54.4508 5.24H56.4708V15H54.4508V5.24ZM56.6308 0.879999V2.98H54.3108V0.879999H56.6308ZM63.9145 13.58C64.2212 13.58 64.5212 13.56 64.8145 13.52L64.7145 15.06C64.3812 15.1133 64.0345 15.14 63.6745 15.14C62.4079 15.14 61.4612 14.8333 60.8345 14.22C60.2212 13.5933 59.9145 12.6933 59.9145 11.52V6.8H58.0145V5.24H59.9145V2.3H61.9345V5.24H64.6145V6.8H61.9345V11.44C61.9345 12.8667 62.5945 13.58 63.9145 13.58ZM74.7053 10.46H67.8053C67.952 12.5267 68.9786 13.56 70.8853 13.56C72.0053 13.56 73.0186 13.1933 73.9253 12.46L74.5453 13.88C74.092 14.2667 73.532 14.5733 72.8653 14.8C72.1986 15.0267 71.5186 15.14 70.8253 15.14C69.2653 15.14 68.032 14.6933 67.1253 13.8C66.232 12.9067 65.7853 11.6733 65.7853 10.1C65.7853 9.1 65.9786 8.21333 66.3653 7.44C66.7653 6.66667 67.3186 6.06667 68.0253 5.64C68.7453 5.21333 69.5586 5 70.4653 5C71.7853 5 72.8186 5.42667 73.5653 6.28C74.3253 7.13333 74.7053 8.31333 74.7053 9.82V10.46ZM70.5053 6.48C69.732 6.48 69.112 6.72667 68.6453 7.22C68.192 7.7 67.9186 8.39333 67.8253 9.3H72.9653C72.9253 8.39333 72.692 7.7 72.2653 7.22C71.852 6.72667 71.2653 6.48 70.5053 6.48ZM92.2447 15L90.6847 13.34C90.1114 13.9133 89.458 14.36 88.7247 14.68C88.0047 14.9867 87.2314 15.14 86.4047 15.14C85.4847 15.14 84.6714 14.9867 83.9647 14.68C83.258 14.36 82.7047 13.92 82.3047 13.36C81.918 12.7867 81.7247 12.1333 81.7247 11.4C81.7247 10.5467 81.9714 9.78667 82.4647 9.12C82.9714 8.44 83.778 7.78 84.8847 7.14C84.3114 6.51333 83.898 5.96 83.6447 5.48C83.4047 4.98667 83.2847 4.47333 83.2847 3.94C83.2847 2.99333 83.618 2.22667 84.2847 1.64C84.9514 1.05333 85.8314 0.76 86.9247 0.76C87.938 0.76 88.7447 1.02667 89.3447 1.56C89.9447 2.08 90.2447 2.79333 90.2447 3.7C90.2447 4.40667 90.0314 5.04 89.6047 5.6C89.1914 6.16 88.478 6.75333 87.4647 7.38L90.5847 10.68C91.1447 9.53333 91.4514 8.18 91.5047 6.62H93.2247C93.1447 8.67333 92.6647 10.4467 91.7847 11.94L94.6647 15H92.2447ZM86.9447 2.22C86.4114 2.22 85.978 2.38 85.6447 2.7C85.3247 3.00667 85.1647 3.42 85.1647 3.94C85.1647 4.28667 85.2514 4.62667 85.4247 4.96C85.6114 5.29333 85.9447 5.72667 86.4247 6.26C87.2247 5.78 87.778 5.36 88.0847 5C88.3914 4.62667 88.5447 4.22 88.5447 3.78C88.5447 3.31333 88.398 2.94 88.1047 2.66C87.8114 2.36667 87.4247 2.22 86.9447 2.22ZM86.4647 13.56C87.678 13.56 88.718 13.0933 89.5847 12.16L85.9447 8.28C85.1447 8.76 84.5714 9.23333 84.2247 9.7C83.878 10.1667 83.7047 10.7 83.7047 11.3C83.7047 11.9933 83.9514 12.5467 84.4447 12.96C84.9514 13.36 85.6247 13.56 86.4647 13.56ZM114.656 0.899999V15H112.796L112.816 4.8L108.616 12.74H107.216L102.996 4.9L103.016 15H101.156V0.899999H102.816L107.936 10.66L113.016 0.899999H114.656ZM121.953 15.14C120.993 15.14 120.146 14.9333 119.413 14.52C118.693 14.1067 118.133 13.52 117.733 12.76C117.346 11.9867 117.153 11.0933 117.153 10.08C117.153 9.05333 117.346 8.16 117.733 7.4C118.133 6.62667 118.693 6.03333 119.413 5.62C120.146 5.20667 120.993 5 121.953 5C122.913 5 123.753 5.20667 124.473 5.62C125.206 6.03333 125.766 6.62667 126.153 7.4C126.553 8.16 126.753 9.05333 126.753 10.08C126.753 11.0933 126.553 11.9867 126.153 12.76C125.766 13.52 125.206 14.1067 124.473 14.52C123.753 14.9333 122.913 15.14 121.953 15.14ZM121.953 13.54C122.846 13.54 123.526 13.2467 123.993 12.66C124.473 12.0733 124.713 11.2133 124.713 10.08C124.713 8.96 124.473 8.10667 123.993 7.52C123.513 6.92 122.833 6.62 121.953 6.62C121.073 6.62 120.393 6.92 119.913 7.52C119.433 8.10667 119.193 8.96 119.193 10.08C119.193 11.2133 119.426 12.0733 119.893 12.66C120.373 13.2467 121.059 13.54 121.953 13.54ZM134.242 5C135.095 5 135.848 5.20667 136.502 5.62C137.155 6.03333 137.662 6.62 138.022 7.38C138.395 8.14 138.582 9.02667 138.582 10.04C138.582 11.04 138.395 11.9267 138.022 12.7C137.662 13.4733 137.148 14.0733 136.482 14.5C135.828 14.9267 135.082 15.14 134.242 15.14C133.508 15.14 132.862 14.9867 132.302 14.68C131.742 14.36 131.315 13.9067 131.022 13.32V15H129.002V0.899999H131.022V6.84C131.315 6.25333 131.742 5.8 132.302 5.48C132.862 5.16 133.508 5 134.242 5ZM133.762 13.54C134.628 13.54 135.302 13.2333 135.782 12.62C136.275 12.0067 136.522 11.1467 136.522 10.04C136.522 8.94667 136.282 8.10667 135.802 7.52C135.322 6.92 134.642 6.62 133.762 6.62C132.882 6.62 132.202 6.92 131.722 7.52C131.255 8.12 131.022 8.97333 131.022 10.08C131.022 11.1867 131.255 12.04 131.722 12.64C132.202 13.24 132.882 13.54 133.762 13.54ZM140.818 5.24H142.838V15H140.818V5.24ZM142.998 0.879999V2.98H140.678V0.879999H142.998ZM145.662 0.899999H147.682V15H145.662V0.899999ZM158.865 10.46H151.965C152.112 12.5267 153.139 13.56 155.045 13.56C156.165 13.56 157.179 13.1933 158.085 12.46L158.705 13.88C158.252 14.2667 157.692 14.5733 157.025 14.8C156.359 15.0267 155.679 15.14 154.985 15.14C153.425 15.14 152.192 14.6933 151.285 13.8C150.392 12.9067 149.945 11.6733 149.945 10.1C149.945 9.1 150.139 8.21333 150.525 7.44C150.925 6.66667 151.479 6.06667 152.185 5.64C152.905 5.21333 153.719 5 154.625 5C155.945 5 156.979 5.42667 157.725 6.28C158.485 7.13333 158.865 8.31333 158.865 9.82V10.46ZM154.665 6.48C153.892 6.48 153.272 6.72667 152.805 7.22C152.352 7.7 152.079 8.39333 151.985 9.3H157.125C157.085 8.39333 156.852 7.7 156.425 7.22C156.012 6.72667 155.425 6.48 154.665 6.48ZM175.885 11.52H168.745L167.245 15H165.165L171.445 0.899999H173.165L179.445 15H177.385L175.885 11.52ZM175.185 9.88L172.325 3.2L169.445 9.88H175.185ZM186.292 5C187.132 5 187.879 5.21333 188.532 5.64C189.199 6.06667 189.712 6.66667 190.072 7.44C190.446 8.21333 190.632 9.10667 190.632 10.12C190.632 11.12 190.452 12 190.092 12.76C189.732 13.52 189.219 14.1067 188.552 14.52C187.899 14.9333 187.146 15.14 186.292 15.14C185.559 15.14 184.912 14.9867 184.352 14.68C183.792 14.36 183.366 13.9067 183.072 13.32V18.6H181.052V5.24H183.072V6.84C183.366 6.25333 183.792 5.8 184.352 5.48C184.912 5.16 185.559 5 186.292 5ZM185.812 13.54C186.692 13.54 187.372 13.2467 187.852 12.66C188.332 12.06 188.572 11.2133 188.572 10.12C188.572 9.01333 188.326 8.15333 187.832 7.54C187.352 6.92667 186.679 6.62 185.812 6.62C184.932 6.62 184.252 6.92 183.772 7.52C183.306 8.12 183.072 8.97333 183.072 10.08C183.072 11.1867 183.306 12.04 183.772 12.64C184.252 13.24 184.932 13.54 185.812 13.54ZM198.109 5C198.949 5 199.695 5.21333 200.349 5.64C201.015 6.06667 201.529 6.66667 201.889 7.44C202.262 8.21333 202.449 9.10667 202.449 10.12C202.449 11.12 202.269 12 201.909 12.76C201.549 13.52 201.035 14.1067 200.369 14.52C199.715 14.9333 198.962 15.14 198.109 15.14C197.375 15.14 196.729 14.9867 196.169 14.68C195.609 14.36 195.182 13.9067 194.889 13.32V18.6H192.869V5.24H194.889V6.84C195.182 6.25333 195.609 5.8 196.169 5.48C196.729 5.16 197.375 5 198.109 5ZM197.629 13.54C198.509 13.54 199.189 13.2467 199.669 12.66C200.149 12.06 200.389 11.2133 200.389 10.12C200.389 9.01333 200.142 8.15333 199.649 7.54C199.169 6.92667 198.495 6.62 197.629 6.62C196.749 6.62 196.069 6.92 195.589 7.52C195.122 8.12 194.889 8.97333 194.889 10.08C194.889 11.1867 195.122 12.04 195.589 12.64C196.069 13.24 196.749 13.54 197.629 13.54ZM210.199 0.899999H215.139C217.419 0.899999 219.185 1.51333 220.439 2.74C221.692 3.96667 222.319 5.7 222.319 7.94C222.319 10.18 221.692 11.92 220.439 13.16C219.185 14.3867 217.419 15 215.139 15H210.199V0.899999ZM215.019 13.28C218.485 13.28 220.219 11.5 220.219 7.94C220.219 4.39333 218.485 2.62 215.019 2.62H212.259V13.28H215.019ZM233.24 10.46H226.34C226.487 12.5267 227.514 13.56 229.42 13.56C230.54 13.56 231.554 13.1933 232.46 12.46L233.08 13.88C232.627 14.2667 232.067 14.5733 231.4 14.8C230.734 15.0267 230.054 15.14 229.36 15.14C227.8 15.14 226.567 14.6933 225.66 13.8C224.767 12.9067 224.32 11.6733 224.32 10.1C224.32 9.1 224.514 8.21333 224.9 7.44C225.3 6.66667 225.854 6.06667 226.56 5.64C227.28 5.21333 228.094 5 229 5C230.32 5 231.354 5.42667 232.1 6.28C232.86 7.13333 233.24 8.31333 233.24 9.82V10.46ZM229.04 6.48C228.267 6.48 227.647 6.72667 227.18 7.22C226.727 7.7 226.454 8.39333 226.36 9.3H231.5C231.46 8.39333 231.227 7.7 230.8 7.22C230.387 6.72667 229.8 6.48 229.04 6.48ZM238.906 15.14C237.213 15.14 235.86 14.7267 234.846 13.9L235.466 12.44C236.466 13.2133 237.633 13.6 238.966 13.6C239.62 13.6 240.12 13.4933 240.466 13.28C240.813 13.0533 240.986 12.74 240.986 12.34C240.986 11.9933 240.866 11.72 240.626 11.52C240.4 11.32 240 11.1533 239.426 11.02L237.806 10.66C236.94 10.46 236.286 10.1333 235.846 9.68C235.406 9.22667 235.186 8.65333 235.186 7.96C235.186 7.08 235.54 6.36667 236.246 5.82C236.966 5.27333 237.906 5 239.066 5C239.76 5 240.42 5.11333 241.046 5.34C241.673 5.55333 242.213 5.86 242.666 6.26L242.046 7.68C241.086 6.92 240.093 6.54 239.066 6.54C238.453 6.54 237.966 6.66 237.606 6.9C237.26 7.14 237.086 7.46667 237.086 7.88C237.086 8.21333 237.193 8.48667 237.406 8.7C237.633 8.9 237.986 9.05333 238.466 9.16L240.126 9.54C241.073 9.75333 241.766 10.0867 242.206 10.54C242.646 10.98 242.866 11.56 242.866 12.28C242.866 13.16 242.506 13.86 241.786 14.38C241.08 14.8867 240.12 15.14 238.906 15.14ZM245.115 5.24H247.135V15H245.115V5.24ZM247.295 0.879999V2.98H244.975V0.879999H247.295ZM259.039 5.24V14.22C259.039 15.7133 258.639 16.84 257.839 17.6C257.052 18.36 255.885 18.74 254.339 18.74C253.499 18.74 252.699 18.6267 251.939 18.4C251.192 18.1867 250.525 17.8733 249.939 17.46L250.559 16C251.199 16.4133 251.812 16.7067 252.399 16.88C252.999 17.0667 253.639 17.16 254.319 17.16C256.145 17.16 257.059 16.2333 257.059 14.38V12.84C256.779 13.4267 256.352 13.8867 255.779 14.22C255.205 14.54 254.539 14.7 253.779 14.7C252.925 14.7 252.165 14.5 251.499 14.1C250.832 13.7 250.312 13.1333 249.939 12.4C249.579 11.6667 249.399 10.82 249.399 9.86C249.399 8.9 249.585 8.05333 249.959 7.32C250.332 6.58667 250.845 6.02 251.499 5.62C252.165 5.20667 252.925 5 253.779 5C254.525 5 255.179 5.16 255.739 5.48C256.312 5.8 256.745 6.25333 257.039 6.84V5.24H259.039ZM254.259 13.1C255.125 13.1 255.805 12.8133 256.299 12.24C256.792 11.6667 257.039 10.8733 257.039 9.86C257.039 8.86 256.792 8.07333 256.299 7.5C255.819 6.91333 255.139 6.62 254.259 6.62C253.379 6.62 252.685 6.90667 252.179 7.48C251.685 8.05333 251.439 8.84667 251.439 9.86C251.439 10.8733 251.692 11.6667 252.199 12.24C252.705 12.8133 253.392 13.1 254.259 13.1ZM267.113 5C269.446 5 270.613 6.31333 270.613 8.94V15H268.593V9.04C268.593 8.21333 268.426 7.60667 268.093 7.22C267.773 6.83333 267.266 6.64 266.573 6.64C265.76 6.64 265.106 6.89333 264.613 7.4C264.12 7.90667 263.873 8.58667 263.873 9.44V15H261.853V5.24H263.833V6.8C264.153 6.21333 264.6 5.76667 265.173 5.46C265.746 5.15333 266.393 5 267.113 5Z" fill="#3B3B3B"/>
</svg>
